<svg xmlns="http://www.w3.org/2000/svg" viewBox="0 0 256 256">
  <defs>
    <linearGradient id="jira-gradient" x1="0%" y1="0%" x2="100%" y2="100%">
      <stop offset="0%" style="stop-color:#0052CC;stop-opacity:1" />
      <stop offset="100%" style="stop-color:#2684FF;stop-opacity:1" />
    </linearGradient>
  </defs>
  <path fill="url(#jira-gradient)" d="M244.658,0H121.707a55.502,55.502,0,0,0,55.502,55.502h22.649V77.37c.02,30.625,24.842,55.447,55.467,55.467V10.666A10.668,10.668,0,0,0,244.658,0Z"/>
  <path fill="#2684FF" d="M183.822,60.953H60.871c.019,30.116,24.437,54.534,54.553,54.553H138.07v21.867a55.502,55.502,0,0,0,55.5,55.5V71.619A10.666,10.666,0,0,0,183.822,60.953Z"/>
  <path fill="#0052CC" d="M122.986,121.906H0a55.502,55.502,0,0,0,55.502,55.5H77.718v21.867a55.467,55.467,0,0,0,55.467,55.467V132.572A10.666,10.666,0,0,0,122.986,121.906Z"/>
</svg>



