<?xml version="1.0" encoding="UTF-8"?>
<svg version="1.1" xmlns="http://www.w3.org/2000/svg" width="1024" height="1024">
<path d="M0 0 C1.48113281 0.38285156 1.48113281 0.38285156 2.9921875 0.7734375 C16.92018763 4.8876706 29.24147898 12.38226832 40 22 C40.98097656 22.78503906 41.96195313 23.57007813 42.97265625 24.37890625 C46.12029389 26.99818149 48.72964287 29.96992346 51.25 33.1875 C51.7138208 33.77611816 52.1776416 34.36473633 52.65551758 34.97119141 C58.34554674 42.43652508 62.66291602 50.70215168 67 59 C67.66 59 68.32 59 69 59 C69.33 58.01 69.66 57.02 70 56 C71.23492187 55.88527344 72.46984375 55.77054687 73.7421875 55.65234375 C80.66336575 54.88287317 87.4280694 53.3450789 94.234375 51.90429688 C107.59423175 49.14447535 120.38637308 47.69457268 134.02734375 47.8046875 C135.39595835 47.80843265 136.76457569 47.81127248 138.13319397 47.81326294 C141.67914664 47.82078149 145.22492693 47.84032351 148.77081299 47.8626709 C152.41163808 47.88338829 156.05249192 47.89231912 159.69335938 47.90234375 C166.79564206 47.92358479 173.89780958 47.95757187 181 48 C181 48.66 181 49.32 181 50 C181.99515625 50.14695312 182.9903125 50.29390625 184.015625 50.4453125 C195.69118999 52.28212477 206.75202309 55.40576539 218 59 C218.64995297 57.58521865 219.29478722 56.16808513 219.9375 54.75 C220.29714844 53.96109375 220.65679688 53.1721875 221.02734375 52.359375 C221.90033279 50.24176302 222.51338508 48.23330638 223 46 C223.66 46 224.32 46 225 46 C226.64096407 43.86404677 228.17389886 41.72353271 229.6875 39.5 C238.09899127 27.48809569 247.68492016 18.12271224 260 10 C260.66 10 261.32 10 262 10 C262.33 9.34 262.66 8.68 263 8 C285.62735401 -3.27203157 311.71776367 -7.38612003 336.10791016 0.69873047 C340.7928606 2.33549004 345.40111781 4.13657031 350 6 C352.65912545 7.07488592 355.27821746 8.09273915 358 9 C358 9.66 358 10.32 358 11 C359.61989488 12.20878996 359.61989488 12.20878996 361.75 13.4375 C375.66260747 22.44235302 385.48078402 34.68791626 393.3359375 49.09375 C394.83956108 52.01441431 394.83956108 52.01441431 397 54 C404.32921387 75.98764162 406.54060369 98.16709447 399.1875 120.375 C398.93556885 121.13852783 398.6836377 121.90205566 398.42407227 122.6887207 C396.88308519 127.11091443 394.95910272 130.63585195 392.375 134.5625 C390.91051678 137.03352138 390.91051678 137.03352138 391 140 C394.18217201 147.0722319 399.54080473 153.54080473 405 159 C405.33 159.99 405.66 160.98 406 162 C406.91838622 163.5982849 407.83968334 165.19500782 408.77954102 166.78076172 C423.25462854 191.39726098 432.43763519 218.8643682 437 247 C437.21269531 248.26714844 437.42539062 249.53429687 437.64453125 250.83984375 C441.95252752 280.37596209 440.50923932 310.91484118 434 340 C433.82098145 340.80163574 433.64196289 341.60327148 433.45751953 342.42919922 C424.51976646 381.28171546 405.56424255 417.52322576 380 448 C379.58878906 448.49999512 379.17757812 448.99999023 378.75390625 449.51513672 C367.43341816 463.26788909 355.10662506 476.08392029 341 487 C339.94743361 487.85196592 338.89674533 488.70625585 337.84765625 489.5625 C295.37129805 523.99610721 243.18363315 545.3774674 189 552 C187.79230957 552.14808105 186.58461914 552.29616211 185.34033203 552.44873047 C127.03530022 559.34263076 64.33072512 553.0840582 10.6015625 528.09375 C8.05746716 527.02416037 5.71824517 526.43491923 3 526 C3 525.34 3 524.68 3 524 C2.19304687 523.76539063 1.38609375 523.53078125 0.5546875 523.2890625 C-29.07559654 512.54401444 -55.60196034 489.60190081 -78 468 C-78.9384375 467.1028125 -79.876875 466.205625 -80.84375 465.28125 C-89.56303895 456.77725214 -96.90823549 447.18897139 -104.37084961 437.59472656 C-106.16794312 435.29000718 -107.93116574 433.06883426 -110 431 C-110.92396796 429.53824264 -111.81541711 428.05579261 -112.6875 426.5625 C-115.55318785 421.70144431 -118.58394053 416.96732871 -121.6796875 412.25 C-123 410 -123 410 -123 408 C-123.66 407.67 -124.32 407.34 -125 407 C-125.99 406.34 -126.98 405.68 -128 405 C-127.67 404.34 -127.34 403.68 -127 403 C-127.99590109 400.29620134 -127.99590109 400.29620134 -129.4375 397.375 C-129.91058594 396.37210938 -130.38367188 395.36921875 -130.87109375 394.3359375 C-131.24363281 393.56507813 -131.61617187 392.79421875 -132 392 C-132.99 392 -133.98 392 -135 392 C-135.33 391.01 -135.66 390.02 -136 389 C-136.66 388.67 -137.32 388.34 -138 388 C-137.608125 387.34128906 -137.21625 386.68257812 -136.8125 386.00390625 C-135.65289121 381.71669876 -137.27845841 378.82529 -139 374.9375 C-141.85010876 368.09182512 -144.31563542 361.23155198 -146.4375 354.125 C-146.69595703 353.27542725 -146.95441406 352.42585449 -147.22070312 351.55053711 C-148.33305617 347.77806031 -149 344.99409118 -149 341 C-149.99 341 -150.98 341 -152 341 C-153.48861612 336.36551936 -154.19137514 332.7224685 -154 327.8125 C-153.85884367 318.97258503 -154.56389225 310.23377811 -155.2890625 301.42700195 C-158.12226923 265.55405132 -152.87636661 226.04002022 -138 193 C-137.34 192.67 -136.68 192.34 -136 192 C-135.19603175 190.12267157 -135.19603175 190.12267157 -134.5625 187.875 C-133.27650603 183.77548622 -131.72944119 179.93054817 -130 176 C-129.67 175.01 -129.34 174.02 -129 173 C-127.66666667 171.33333333 -126.33333333 169.66666667 -125 168 C-122.61607834 164.53355312 -120.31123572 161.0152058 -118 157.5 C-111.48998121 147.59877896 -111.48998121 147.59877896 -108.5546875 144.01171875 C-106.70611913 142.06848675 -106.70611913 142.06848675 -107.125 139.3125 C-107.87543882 136.85048935 -107.87543882 136.85048935 -110 135 C-110.33 134.34 -110.66 133.68 -111 133 C-111.99 133.33 -112.98 133.66 -114 134 C-113.95359375 133.37996094 -113.9071875 132.75992188 -113.859375 132.12109375 C-113.56137045 124.80933929 -114.96532091 118.5254421 -117.02734375 111.578125 C-117.98562478 108.05288235 -118.50591459 104.61439056 -119 101 C-119.33 100.34 -119.66 99.68 -120 99 C-120.42936942 91.39117444 -120.32971455 84.28035798 -118 77 C-118.66 77 -119.32 77 -120 77 C-119.39129839 75.78259679 -118.76427695 74.57384566 -118.10546875 73.3828125 C-116.52533641 69.97687353 -115.43593248 66.4533405 -114.3125 62.875 C-114.07466797 62.14667969 -113.83683594 61.41835938 -113.59179688 60.66796875 C-112.11629816 56.80610365 -112.11629816 56.80610365 -113 53 C-112.01 53 -111.02 53 -110 53 C-109.73058594 52.11441406 -109.46117187 51.22882813 -109.18359375 50.31640625 C-102.1024322 30.4751318 -82.38878873 13.9942603 -64 5 C-43.38760056 -3.84424173 -21.67158164 -5.78244058 0 0 Z M-113 126 C-112.67 127.65 -112.34 129.3 -112 131 C-111.67 130.01 -111.34 129.02 -111 128 C-111.66 127.34 -112.32 126.68 -113 126 Z M-153 325 C-153 326.98 -153 328.96 -153 331 C-152.67 331 -152.34 331 -152 331 C-152 329.02 -152 327.04 -152 325 C-152.33 325 -152.66 325 -153 325 Z M-152 332 C-151 335 -151 335 -151 335 Z M-151 336 C-150 340 -150 340 -150 340 Z M-134 388 C-133 390 -133 390 -133 390 Z " fill="#7EB942" transform="translate(370,232)"/>
<path d="M0 0 C1.48113281 0.38285156 1.48113281 0.38285156 2.9921875 0.7734375 C16.92018763 4.8876706 29.24147898 12.38226832 40 22 C40.98097656 22.78503906 41.96195313 23.57007813 42.97265625 24.37890625 C46.12029389 26.99818149 48.72964287 29.96992346 51.25 33.1875 C51.7138208 33.77611816 52.1776416 34.36473633 52.65551758 34.97119141 C58.34554674 42.43652508 62.66291602 50.70215168 67 59 C67.66 59 68.32 59 69 59 C69.33 58.01 69.66 57.02 70 56 C71.23492187 55.88527344 72.46984375 55.77054687 73.7421875 55.65234375 C80.66336575 54.88287317 87.4280694 53.3450789 94.234375 51.90429688 C107.59423175 49.14447535 120.38637308 47.69457268 134.02734375 47.8046875 C135.39595835 47.80843265 136.76457569 47.81127248 138.13319397 47.81326294 C141.67914664 47.82078149 145.22492693 47.84032351 148.77081299 47.8626709 C152.41163808 47.88338829 156.05249192 47.89231912 159.69335938 47.90234375 C166.79564206 47.92358479 173.89780958 47.95757187 181 48 C181 48.66 181 49.32 181 50 C181.99515625 50.14695312 182.9903125 50.29390625 184.015625 50.4453125 C195.69118999 52.28212477 206.75202309 55.40576539 218 59 C218.64995297 57.58521865 219.29478722 56.16808513 219.9375 54.75 C220.29714844 53.96109375 220.65679688 53.1721875 221.02734375 52.359375 C221.90033279 50.24176302 222.51338508 48.23330638 223 46 C223.66 46 224.32 46 225 46 C226.64096407 43.86404677 228.17389886 41.72353271 229.6875 39.5 C238.09899127 27.48809569 247.68492016 18.12271224 260 10 C260.66 10 261.32 10 262 10 C262.33 9.34 262.66 8.68 263 8 C285.62735401 -3.27203157 311.71776367 -7.38612003 336.10791016 0.69873047 C340.7928606 2.33549004 345.40111781 4.13657031 350 6 C352.65912545 7.07488592 355.27821746 8.09273915 358 9 C358 9.66 358 10.32 358 11 C359.61989488 12.20878996 359.61989488 12.20878996 361.75 13.4375 C375.66260747 22.44235302 385.48078402 34.68791626 393.3359375 49.09375 C394.83956108 52.01441431 394.83956108 52.01441431 397 54 C404.32921387 75.98764162 406.54060369 98.16709447 399.1875 120.375 C398.93556885 121.13852783 398.6836377 121.90205566 398.42407227 122.6887207 C396.88308519 127.11091443 394.95910272 130.63585195 392.375 134.5625 C390.91051678 137.03352138 390.91051678 137.03352138 391 140 C394.18217201 147.0722319 399.54080473 153.54080473 405 159 C405.33 159.99 405.66 160.98 406 162 C406.91838622 163.5982849 407.83968334 165.19500782 408.77954102 166.78076172 C423.25462854 191.39726098 432.43763519 218.8643682 437 247 C437.21269531 248.26714844 437.42539062 249.53429687 437.64453125 250.83984375 C441.95252752 280.37596209 440.50923932 310.91484118 434 340 C433.82098145 340.80163574 433.64196289 341.60327148 433.45751953 342.42919922 C424.51976646 381.28171546 405.56424255 417.52322576 380 448 C379.58878906 448.49999512 379.17757812 448.99999023 378.75390625 449.51513672 C367.43341816 463.26788909 355.10662506 476.08392029 341 487 C339.94743361 487.85196592 338.89674533 488.70625585 337.84765625 489.5625 C295.37129805 523.99610721 243.18363315 545.3774674 189 552 C187.79230957 552.14808105 186.58461914 552.29616211 185.34033203 552.44873047 C127.03530022 559.34263076 64.33072512 553.0840582 10.6015625 528.09375 C8.05746716 527.02416037 5.71824517 526.43491923 3 526 C3 525.34 3 524.68 3 524 C2.19304687 523.76539063 1.38609375 523.53078125 0.5546875 523.2890625 C-29.07559654 512.54401444 -55.60196034 489.60190081 -78 468 C-78.9384375 467.1028125 -79.876875 466.205625 -80.84375 465.28125 C-89.56303895 456.77725214 -96.90823549 447.18897139 -104.37084961 437.59472656 C-106.16794312 435.29000718 -107.93116574 433.06883426 -110 431 C-110.92396796 429.53824264 -111.81541711 428.05579261 -112.6875 426.5625 C-115.55318785 421.70144431 -118.58394053 416.96732871 -121.6796875 412.25 C-123 410 -123 410 -123 408 C-123.66 407.67 -124.32 407.34 -125 407 C-125.99 406.34 -126.98 405.68 -128 405 C-127.67 404.34 -127.34 403.68 -127 403 C-127.99590109 400.29620134 -127.99590109 400.29620134 -129.4375 397.375 C-129.91058594 396.37210938 -130.38367188 395.36921875 -130.87109375 394.3359375 C-131.24363281 393.56507813 -131.61617187 392.79421875 -132 392 C-132.99 392 -133.98 392 -135 392 C-135.33 391.01 -135.66 390.02 -136 389 C-136.66 388.67 -137.32 388.34 -138 388 C-137.608125 387.34128906 -137.21625 386.68257812 -136.8125 386.00390625 C-135.65289121 381.71669876 -137.27845841 378.82529 -139 374.9375 C-141.85010876 368.09182512 -144.31563542 361.23155198 -146.4375 354.125 C-146.69595703 353.27542725 -146.95441406 352.42585449 -147.22070312 351.55053711 C-148.33305617 347.77806031 -149 344.99409118 -149 341 C-149.99 341 -150.98 341 -152 341 C-153.48861612 336.36551936 -154.19137514 332.7224685 -154 327.8125 C-153.85884367 318.97258503 -154.56389225 310.23377811 -155.2890625 301.42700195 C-158.12226923 265.55405132 -152.87636661 226.04002022 -138 193 C-137.34 192.67 -136.68 192.34 -136 192 C-135.19603175 190.12267157 -135.19603175 190.12267157 -134.5625 187.875 C-133.27650603 183.77548622 -131.72944119 179.93054817 -130 176 C-129.67 175.01 -129.34 174.02 -129 173 C-127.66666667 171.33333333 -126.33333333 169.66666667 -125 168 C-122.61607834 164.53355312 -120.31123572 161.0152058 -118 157.5 C-111.48998121 147.59877896 -111.48998121 147.59877896 -108.5546875 144.01171875 C-106.70611913 142.06848675 -106.70611913 142.06848675 -107.125 139.3125 C-107.87543882 136.85048935 -107.87543882 136.85048935 -110 135 C-110.33 134.34 -110.66 133.68 -111 133 C-111.99 133.33 -112.98 133.66 -114 134 C-113.95359375 133.37996094 -113.9071875 132.75992188 -113.859375 132.12109375 C-113.56137045 124.80933929 -114.96532091 118.5254421 -117.02734375 111.578125 C-117.98562478 108.05288235 -118.50591459 104.61439056 -119 101 C-119.33 100.34 -119.66 99.68 -120 99 C-120.42936942 91.39117444 -120.32971455 84.28035798 -118 77 C-118.66 77 -119.32 77 -120 77 C-119.39129839 75.78259679 -118.76427695 74.57384566 -118.10546875 73.3828125 C-116.52533641 69.97687353 -115.43593248 66.4533405 -114.3125 62.875 C-114.07466797 62.14667969 -113.83683594 61.41835938 -113.59179688 60.66796875 C-112.11629816 56.80610365 -112.11629816 56.80610365 -113 53 C-112.01 53 -111.02 53 -110 53 C-109.73058594 52.11441406 -109.46117187 51.22882813 -109.18359375 50.31640625 C-102.1024322 30.4751318 -82.38878873 13.9942603 -64 5 C-43.38760056 -3.84424173 -21.67158164 -5.78244058 0 0 Z M-77.31835938 47.57275391 C-90.8759914 64.82457792 -93.38123163 82.68577458 -92 104 C-90.66113658 113.26684752 -86.01817661 121.21293263 -81.35400391 129.2043457 C-78.38361814 134.46549031 -77.26942437 137.9457515 -78 144 C-78.99609375 146.546875 -78.99609375 146.546875 -80.4375 148.75 C-81.26507813 150.02617187 -81.26507813 150.02617187 -82.109375 151.328125 C-84.0736277 154.10405238 -86.11632933 156.80300798 -88.1875 159.5 C-116.56482694 196.76315659 -129.1201598 241.366325 -129.375 287.75 C-129.3830365 288.56308624 -129.391073 289.37617249 -129.39935303 290.21389771 C-129.51726506 305.93689118 -127.47670223 321.15898633 -123.75 336.4375 C-123.43530762 337.73288696 -123.43530762 337.73288696 -123.11425781 339.05444336 C-113.61282065 376.78940791 -94.39058221 410.88673167 -68.25390625 439.5234375 C-66.7257804 441.20252205 -65.21314142 442.89580823 -63.71484375 444.6015625 C-59.09862451 449.84330716 -54.3537981 454.52615141 -49 459 C-48.08992188 459.79792969 -47.17984375 460.59585937 -46.2421875 461.41796875 C-10.78498325 492.37891229 37.49169271 518.01152362 85 522 C84.74605469 521.28199219 84.49210938 520.56398438 84.23046875 519.82421875 C75.08337532 492.3144209 74.98776284 460.04357529 82 432 C82.20898926 431.15518066 82.41797852 430.31036133 82.63330078 429.43994141 C93.8453589 385.65832421 119.98932093 345.40373105 156 318 C156.53496094 317.58331055 157.06992187 317.16662109 157.62109375 316.73730469 C167.84807885 308.78878055 178.67019594 302.25003144 190 296 C190.72477539 295.59507324 191.44955078 295.19014648 192.19628906 294.77294922 C226.57673339 275.62264655 264.32847088 265.99587792 302.6875 258.5 C353.01098598 249.06620853 353.01098598 249.06620853 391.81640625 217.96875 C395.63185127 211.62226719 397.15146077 205.77964848 395.37890625 198.421875 C389.75875054 179.73797957 377.77974335 164.80593502 365.5234375 150.015625 C362.13597995 145.53375809 361.53063611 142.48909964 362.1953125 136.9609375 C363.3526669 132.70232275 365.55184574 129.20254769 367.83764648 125.47753906 C376.82570396 110.6271789 379.66285944 92.88899853 376.31640625 75.82421875 C373.27565126 64.48131942 367.63705611 54.84721061 360 46 C359.42894531 45.33355469 358.85789062 44.66710937 358.26953125 43.98046875 C349.90715157 34.94054018 338.83055124 28.3091252 327 25 C325.79472656 24.64550781 324.58945312 24.29101562 323.34765625 23.92578125 C310.69589513 20.83111655 295.90674981 21.8460783 284 27 C282.73929688 27.50853516 282.73929688 27.50853516 281.453125 28.02734375 C261.10898438 37.13037482 248.55173206 54.82227537 240.30859375 74.8828125 C236.47389791 84.01740139 236.47389791 84.01740139 232 87 C223.31912307 88.73005131 215.89322216 85.76965465 207.91699219 82.78271484 C201.94408506 80.58316456 196.05861859 78.91266241 189.8125 77.6875 C189.07902344 77.54086914 188.34554688 77.39423828 187.58984375 77.24316406 C185.06575964 76.77481109 182.53938848 76.37732755 180 76 C178.81656006 75.82339844 177.63312012 75.64679688 176.41381836 75.46484375 C164.27137366 73.78417409 152.18063118 73.6019444 139.9375 73.625 C138.89952271 73.62521149 137.86154541 73.62542297 136.79211426 73.62564087 C121.47915911 73.65678396 106.92296215 74.29309806 92 78 C91.14148438 78.19787109 90.28296875 78.39574219 89.3984375 78.59960938 C80.34418456 80.68749307 71.96410313 83.29765795 63.4453125 87.046875 C60.0688207 88.36295168 57.56663557 88.6419944 54 88 C47.08230101 84.82978227 45.36647035 79.12575249 42.5625 72.375 C33.40615783 50.62028395 19.29468024 35.34860379 -2.515625 26.19140625 C-29.95815384 16.80803036 -58.73855364 25.40773381 -77.31835938 47.57275391 Z M-113 126 C-112.67 127.65 -112.34 129.3 -112 131 C-111.67 130.01 -111.34 129.02 -111 128 C-111.66 127.34 -112.32 126.68 -113 126 Z M-153 325 C-153 326.98 -153 328.96 -153 331 C-152.67 331 -152.34 331 -152 331 C-152 329.02 -152 327.04 -152 325 C-152.33 325 -152.66 325 -153 325 Z M-152 332 C-151 335 -151 335 -151 335 Z M-151 336 C-150 340 -150 340 -150 340 Z M-134 388 C-133 390 -133 390 -133 390 Z " fill="#0F4317" transform="translate(370,232)"/>
<path d="M0 0 C-9.2717457 46.12837457 -28.60721135 90.41867897 -57 128 C-57.42990234 128.57266602 -57.85980469 129.14533203 -58.30273438 129.73535156 C-65.03164811 138.64993436 -72.23872536 146.97287182 -80 155 C-80.7125293 155.73976074 -81.42505859 156.47952148 -82.15917969 157.24169922 C-91.36571439 166.75460459 -100.57508475 175.92956521 -111.28320312 183.74511719 C-113.10345404 185.07561913 -114.90367608 186.43058155 -116.703125 187.7890625 C-154.80778269 216.37984759 -202.90532549 241.71520173 -251 246 C-249.57477443 241.2000175 -247.52765535 236.95995851 -245.0625 232.625 C-244.670625 231.9338208 -244.27875 231.2426416 -243.875 230.53051758 C-236.97508851 218.5732846 -228.95516727 207.49761247 -220 197 C-219.16726563 195.98292969 -218.33453125 194.96585938 -217.4765625 193.91796875 C-211.28056164 186.41637802 -204.62593897 179.44474197 -197.75 172.5625 C-196.49062622 171.30191772 -196.49062622 171.30191772 -195.20581055 170.01586914 C-190.29325123 165.14698565 -185.26423442 160.48510516 -180 156 C-179.46165527 155.53456787 -178.92331055 155.06913574 -178.36865234 154.58959961 C-170.46787517 147.76209293 -162.35269548 141.26559966 -154 135 C-153.29069336 134.4647168 -152.58138672 133.92943359 -151.85058594 133.37792969 C-136.59475437 121.88576562 -120.78634085 111.60968024 -104.48095703 101.67749023 C-93.91201289 96.13640795 -93.91201289 96.13640795 -86 88 C-85.50213891 83.77226154 -85.32606255 80.20136676 -87.4375 76.4375 C-91.27727443 74.2834802 -94.68074075 74.46199639 -99 75 C-102.64212673 76.1369001 -106.00862878 77.71140659 -109.4375 79.375 C-110.40341064 79.83197266 -111.36932129 80.28894531 -112.36450195 80.75976562 C-115.25743906 82.14582067 -118.13166925 83.56379601 -121 85 C-121.77021484 85.38446289 -122.54042969 85.76892578 -123.33398438 86.16503906 C-142.96513785 96.14108844 -161.93400544 109.12244546 -179 123 C-179.81082031 123.63292969 -180.62164063 124.26585937 -181.45703125 124.91796875 C-186.65544826 128.99104185 -191.6849919 133.25297738 -196.6875 137.5625 C-197.30544434 138.09270752 -197.92338867 138.62291504 -198.56005859 139.16918945 C-202.41162797 142.51061378 -206.02285111 145.99278363 -209.53051758 149.69506836 C-211 151 -211 151 -213 151 C-213.2693335 151.59675537 -213.53866699 152.19351074 -213.81616211 152.80834961 C-215.00012188 155.00022564 -216.1504662 156.35557036 -217.94140625 158.06640625 C-218.52051758 158.62851807 -219.09962891 159.19062988 -219.69628906 159.76977539 C-220.31213867 160.36137451 -220.92798828 160.95297363 -221.5625 161.5625 C-227.50365494 167.39091524 -232.90199421 173.41080422 -238 180 C-239.19689453 181.50626953 -239.19689453 181.50626953 -240.41796875 183.04296875 C-253.41980095 199.50925488 -263.83377763 217.24889109 -273.04882812 236.06542969 C-274.68139247 239.38587113 -276.34234589 242.69202654 -278 246 C-288.46399393 227.34067191 -280.08753373 192.12465911 -274.74169922 172.57861328 C-267.08596893 145.96247659 -253.10486865 123.64306053 -235 103 C-234.20335937 102.07960938 -233.40671875 101.15921875 -232.5859375 100.2109375 C-219.30721166 85.10695724 -202.40271441 72.95623402 -185 63 C-184.1838623 62.53239258 -183.36772461 62.06478516 -182.52685547 61.58300781 C-148.69468866 42.48592984 -111.59639633 33.40300953 -74.11181641 24.59399414 C-37.68562337 16.37057457 -37.68562337 16.37057457 -3.86328125 1.03125 C-2 0 -2 0 0 0 Z " fill="#539430" transform="translate(753,488)"/>
<path d="M0 0 C3.98850604 1.87231644 6.41983592 3.91219236 8.5 7.8125 C9.2425689 12.54637676 9.32004404 16.52762244 7.046875 20.78515625 C-4.07269486 35.4884429 -27.85171854 42.02980005 -45 46 C-45.67675781 46.16516113 -46.35351562 46.33032227 -47.05078125 46.50048828 C-78.04302551 53.77463881 -110.89695055 48.14173977 -141.74890137 43.28079224 C-160.07824228 40.39717609 -178.44027349 38.34865367 -197 38 C-198.00060455 37.9800296 -198.00060455 37.9800296 -199.02142334 37.95965576 C-231.46306135 37.33405445 -262.66373645 39.81002788 -294.66064453 45.47070312 C-308.22306407 47.83027301 -321.64072667 48.31246309 -335.375 48.375 C-336.22063507 48.38285522 -337.06627014 48.39071045 -337.93753052 48.39880371 C-362.69993834 48.5779648 -393.24452312 43.96075328 -412 26 C-414.69932537 21.95101194 -414.53528771 18.75067841 -414 14 C-412.27128428 9.81468826 -410.16960522 7.76049998 -406 6 C-398.75401798 5.24104929 -394.21903543 7.42632509 -387.875 10.75 C-379.69429937 14.83820615 -371.98777006 18.09913829 -363 20 C-362.25113525 20.17225098 -361.50227051 20.34450195 -360.73071289 20.52197266 C-352.41771955 22.26872006 -344.14491014 22.39470645 -335.6875 22.375 C-334.92699341 22.37545319 -334.16648682 22.37590637 -333.38293457 22.37637329 C-318.81312245 22.35113251 -304.73656311 20.7998789 -290.33789062 18.52587891 C-229.76020487 8.98196908 -168.50596494 12.17828497 -108.0546875 20.9921875 C-76.3091933 25.61626205 -42.08233164 24.31836604 -15.12109375 4.9296875 C-14.27675781 4.29289062 -13.43242188 3.65609375 -12.5625 3 C-8.00960734 -0.28652516 -5.56462227 -1.09467979 0 0 Z " fill="#0E4116" transform="translate(718,417)"/>
<path d="M0 0 C2.3286628 3.49299419 2.66682764 6.41592873 3.109375 10.4765625 C3.19346619 11.22579987 3.27755737 11.97503723 3.36419678 12.74697876 C4.19237319 20.79421414 4.30226155 28.8178669 4.26074219 36.90136719 C4.25003566 39.36678816 4.26070907 41.831476 4.2734375 44.296875 C4.28785031 59.38212482 3.21073967 74.44246186 -0.125 89.1875 C-0.33672852 90.13471924 -0.54845703 91.08193848 -0.76660156 92.05786133 C-10.25810704 132.70379845 -30.12203975 168.75419086 -58.43359375 199.2109375 C-60.57498215 201.53810845 -62.64342629 203.90058615 -64.6875 206.3125 C-67.45360932 209.48768183 -70.39202105 212.2626876 -73.609375 214.9765625 C-75.4153316 216.50513361 -77.191705 218.06875131 -78.953125 219.6484375 C-116.69147836 253.29753048 -164.66833576 273.13868885 -214 282 C-215.00804687 282.18272461 -216.01609375 282.36544922 -217.0546875 282.55371094 C-223.81018376 283.73265399 -230.54029832 284.57424304 -237.375 285.125 C-238.417771 285.20991699 -239.46054199 285.29483398 -240.53491211 285.38232422 C-254.00732804 286.36461582 -267.50177672 286.18174718 -281 286 C-280.67 285.34 -280.34 284.68 -280 284 C-277.9440918 283.44091797 -277.9440918 283.44091797 -275.19921875 282.9921875 C-274.17344727 282.81453857 -273.14767578 282.63688965 -272.09082031 282.45385742 C-270.96772461 282.26283447 -269.84462891 282.07181152 -268.6875 281.875 C-240.04974869 276.66795538 -212.28767288 267.46468822 -186 255 C-184.74050537 254.40711182 -184.74050537 254.40711182 -183.45556641 253.80224609 C-163.56272768 244.36622787 -144.58764257 233.26748598 -127 220 C-126.44666992 219.5879834 -125.89333984 219.1759668 -125.32324219 218.75146484 C-118.69526601 213.8136795 -112.33777879 208.67567821 -106.25390625 203.0703125 C-104.24696517 201.22684843 -102.20087758 199.45220907 -100.125 197.6875 C-91.75921913 190.36955431 -84.10629106 182.4629557 -77.19921875 173.7578125 C-74.92463583 170.9054936 -72.56130007 168.14506241 -70.1875 165.375 C-59.57989653 152.61964374 -50.71774027 138.76604937 -42.40966797 124.43164062 C-41.50566457 122.87225825 -40.59629962 121.31596458 -39.68017578 119.76367188 C-22.58484976 90.76537183 -10.6234923 57.99560071 -4 25 C-3.84595703 24.24928223 -3.69191406 23.49856445 -3.53320312 22.72509766 C-1.99962468 15.18719759 -0.68453243 7.66676316 0 0 Z " fill="#549530" transform="translate(779,475)"/>
<path d="M0 0 C9.21601435 6.90840512 15.37210387 16.00158274 17.46875 27.47265625 C18.9683813 39.61550414 16.08985778 49.91523442 8.75 59.75 C1.15337877 68.35648952 -8.95807251 73.01712762 -20.34375 74.0234375 C-31.77570795 74.36429863 -40.87839447 72.01868349 -49.6875 64.5 C-58.59768313 55.74892728 -63.31329726 46.77956763 -63.5625 34.1875 C-63.24293429 22.82960189 -60.22238782 13.17795284 -52.25 4.75 C-37.6134948 -8.0151712 -16.54509753 -10.92369199 0 0 Z " fill="#0E4316" transform="translate(702.25,290.25)"/>
<path d="M0 0 C9.10432161 6.30975185 16.23890253 14.82635768 18.8359375 25.71484375 C20.42628486 38.11294967 19.27213849 49.0780163 11.88671875 59.453125 C5.17960412 67.58113644 -2.9471857 72.28642121 -13.1640625 74.71484375 C-25.13158242 75.77369839 -35.08039952 74.70117492 -44.9765625 67.40234375 C-53.43186157 60.30593203 -59.61592715 51.91050547 -61.1640625 40.71484375 C-62.11701951 29.72696064 -60.5788161 19.91577483 -53.9140625 10.90234375 C-52.69614252 9.47843307 -51.44619396 8.08122204 -50.1640625 6.71484375 C-49.56722656 6.07675781 -48.97039062 5.43867188 -48.35546875 4.78125 C-35.26063246 -7.87799922 -15.41025818 -9.15157932 0 0 Z " fill="#0E4316" transform="translate(366.1640625,289.28515625)"/>
<path d="M0 0 C5.70673941 2.70134591 9.57268471 7.22258839 12 13 C13.14634817 17.64200245 13.62459154 21.45495777 11.8125 25.9375 C8.85133211 29.30710484 7.30079187 30.79987817 2.75 31.5 C-2.82813343 30.75624888 -6.84057832 28.43668076 -10.58203125 24.21484375 C-15.09185806 18.09343617 -16.00156323 12.44640486 -15 5 C-10.60355086 -0.7848015 -6.92463455 -1.79388178 0 0 Z " fill="#0E4016" transform="translate(467,374)"/>
<path d="M0 0 C2.97672584 1.77280561 5.42804007 3.85608015 7 7 C7.91760914 13.20041602 6.75918747 17.67947227 3.50390625 22.984375 C0.90252056 26.47090751 -2.0821378 29.0410689 -6 31 C-9.05920574 31.42071592 -11.9467746 31.48514117 -15 31 C-17.75569447 28.81840855 -19.43588747 27.12822506 -21 24 C-21.73025573 17.06257059 -20.15319639 12.59958319 -16 7 C-10.99235298 1.8634007 -7.41876292 -0.74187629 0 0 Z " fill="#0E3F16" transform="translate(565,374)"/>
<path d="M0 0 C0 3.99401744 -1.38932443 4.90271059 -4 7.875 C-9.03386238 13.87934055 -13.12851459 20.1773003 -17 27 C-17.6084375 28.06734375 -18.216875 29.1346875 -18.84375 30.234375 C-27.76914381 46.9107687 -31.2348371 64.05367885 -31.25 82.8125 C-31.25067474 83.55709473 -31.25134949 84.30168945 -31.25204468 85.06884766 C-31.23625006 96.01584608 -30.79817586 106.36016197 -28 117 C-27.83371094 117.67272949 -27.66742188 118.34545898 -27.49609375 119.03857422 C-21.59655501 142.68589202 -9.74072473 164.71431063 5 184 C5.45020508 184.59296875 5.90041016 185.1859375 6.36425781 185.796875 C18.3348046 201.50035334 31.49788117 215.70671136 47 228 C49.06829139 229.68052741 51.12750549 231.37177467 53.1875 233.0625 C54.10917969 233.81660156 55.03085937 234.57070313 55.98046875 235.34765625 C56.64691406 235.89292969 57.31335938 236.43820312 58 237 C54.73884371 237 53.72382956 236.68236531 51 235 C49.89205078 233.88625 49.89205078 233.88625 48.76171875 232.75 C46.39713786 230.39545269 43.96154527 228.23760777 41.39575195 226.10791016 C24.2817926 211.8776664 10.19020279 195.95292276 -2.22265625 177.546875 C-3.90376225 174.97943391 -3.90376225 174.97943391 -6 173 C-7.39221805 170.70241315 -8.74125806 168.40008189 -10.0625 166.0625 C-10.42666016 165.42892578 -10.79082031 164.79535156 -11.16601562 164.14257812 C-12.69613804 161.45284353 -14.01886389 158.94340834 -15 156 C-15.66 156 -16.32 156 -17 156 C-17.21914063 155.37996094 -17.43828125 154.75992188 -17.6640625 154.12109375 C-19.61323717 148.67766694 -21.69755454 143.33072291 -23.9375 138 C-36.76965616 106.5941308 -38.26025485 70.79157567 -26 39 C-23.85006509 33.91162858 -21.4641241 28.94245065 -19 24 C-18.34 24 -17.68 24 -17 24 C-16.7525 23.28972656 -16.505 22.57945312 -16.25 21.84765625 C-14.85250908 18.66399726 -13.09601688 16.20778702 -11 13.4375 C-8.20747591 9.77398319 -8.20747591 9.77398319 -5.9140625 5.80078125 C-4.55595032 3.12518417 -2.37970155 1.7534643 0 0 Z " fill="#56A135" transform="translate(315,477)"/>
<path d="M0 0 C5.00966838 0.90236263 9.89748931 2.25402959 14.8125 3.5625 C15.69615234 3.79646484 16.57980469 4.03042969 17.49023438 4.27148438 C19.66051561 4.84631562 21.83042042 5.42252721 24 6 C24 6.33 24 6.66 24 7 C20.37 7 16.74 7 13 7 C13 6.34 13 5.68 13 5 C9.75185923 4.35497914 8.15279669 4.16985881 5 5 C0.84462329 8.05974187 -2.59873813 11.75905485 -6.125 15.5 C-7.09589491 16.49391111 -8.06853954 17.48611617 -9.04296875 18.4765625 C-15.27254147 24.86566044 -21.3443392 31.40998347 -25.5 39.375 C-27.22236453 42.60443349 -29.05533025 45.71194237 -31 48.8125 C-41.2858809 65.92926078 -45.20636978 85.33032956 -45.125 105.0625 C-45.12886719 106.00416016 -45.13273437 106.94582031 -45.13671875 107.91601562 C-45.12672214 115.09857701 -44.54335992 121.96913816 -43 129 C-42.84402344 129.71414063 -42.68804687 130.42828125 -42.52734375 131.1640625 C-42.02592063 133.44460912 -41.52118538 135.72388572 -41 138 C-40.85691406 138.62777344 -40.71382813 139.25554687 -40.56640625 139.90234375 C-39.53818974 143.7102904 -38.14643472 147.40516807 -36.83984375 151.125 C-36 154 -36 154 -36 158 C-35.34 158.33 -34.68 158.66 -34 159 C-32.71192516 161.63151941 -31.51998416 164.24492547 -30.375 166.9375 C-29.88773437 168.0502832 -29.88773437 168.0502832 -29.390625 169.18554688 C-27 174.72516741 -27 174.72516741 -27 177 C-26.34 177 -25.68 177 -25 177 C-24.01 180.465 -24.01 180.465 -23 184 C-22.34 184 -21.68 184 -21 184 C-20.60167969 184.84820313 -20.20335937 185.69640625 -19.79296875 186.5703125 C-17.8789188 190.23161066 -15.69743628 193.5125061 -13.3125 196.875 C-12.89677734 197.46796875 -12.48105469 198.0609375 -12.05273438 198.671875 C-11.03874187 200.1171057 -10.01987703 201.55891589 -9 203 C-9.33 203.66 -9.66 204.32 -10 205 C-37.63984538 170.3500489 -51.22674395 128.3602359 -46.69970703 84.06152344 C-45.93816999 79.20514836 -44.60987279 74.64963258 -43 70 C-42.78569336 69.33838867 -42.57138672 68.67677734 -42.35058594 67.99511719 C-34.71513809 44.48860744 -18.83827155 21.85167719 0.3515625 6.19921875 C3.03012612 4.27509399 3.03012612 4.27509399 4 2 C2.68 1.34 1.36 0.68 0 0 Z " fill="#ABD450" transform="translate(330,457)"/>
<path d="M0 0 C1.10444863 3.33741846 0.87048488 5.53059762 0.0390625 8.921875 C-0.29738281 10.33726562 -0.29738281 10.33726562 -0.640625 11.78125 C-0.88296875 12.7609375 -1.1253125 13.740625 -1.375 14.75 C-1.84493326 16.68137406 -2.31114636 18.61365749 -2.7734375 20.546875 C-2.98403809 21.40120117 -3.19463867 22.25552734 -3.41162109 23.13574219 C-5.29544086 32.30627059 -5.24171673 41.49308638 -5.25 50.8125 C-5.25100708 51.59490051 -5.25201416 52.37730103 -5.25305176 53.18341064 C-5.23851923 69.8611937 -3.59906978 85.16912758 2 101 C-7.59970013 99.7696843 -16.71605508 97.64521806 -26 95 C-26 94.67 -26 94.34 -26 94 C-24.783125 94.144375 -23.56625 94.28875 -22.3125 94.4375 C-16.2212315 95.11863226 -10.11235086 95.55598069 -4 96 C-4.30679687 94.75734375 -4.61359375 93.5146875 -4.9296875 92.234375 C-11.41899224 62.91233134 -9.85055974 28.34655754 0 0 Z " fill="#CFEF63" transform="translate(453,653)"/>
<path d="M0 0 C4.58464299 3.6316554 7.82406827 7.03760667 11 12 C14.749394 16.58058495 18.76381491 20.86713649 23 25 C23.56074219 25.58265625 24.12148438 26.1653125 24.69921875 26.765625 C30.64974029 32.8971969 37.07815963 39.16898794 44.51953125 43.44921875 C47.45955366 45.2873115 49.56163178 47.53953177 52 50 C54.10377818 51.64170804 56.19724791 53.21547104 58.375 54.75 C58.982229 55.18046631 59.58945801 55.61093262 60.21508789 56.05444336 C66.31081906 60.31528683 72.64968835 64.11746343 79.06933594 67.86474609 C81.07935813 69.04666354 83.07611789 70.24861595 85.0703125 71.45703125 C85.73877197 71.86171631 86.40723145 72.26640137 87.09594727 72.68334961 C88.36535409 73.45255814 89.63411941 74.22282681 90.90209961 74.99438477 C94.52308272 77.17823835 98.19413418 79.15789143 102 81 C99 82 99 82 95.54296875 80.40234375 C94.08390888 79.5936506 92.63262332 78.770842 91.1875 77.9375 C90.39923828 77.48922852 89.61097656 77.04095703 88.79882812 76.57910156 C71.9689715 66.89176788 55.98040959 56.36986338 41 44 C40.34451172 43.46020508 39.68902344 42.92041016 39.01367188 42.36425781 C24.62878366 30.42523606 10.64562336 17.4704589 0 2 C0 1.34 0 0.68 0 0 Z " fill="#ADD551" transform="translate(321,662)"/>
<path d="M0 0 C6.69568333 0.43567802 13.30111382 1.03179425 19.9375 2.03125 C31.07775947 3.53758996 42.28349934 3.21535941 53.5 3.125 C55.69140213 3.11494323 57.88280876 3.10582218 60.07421875 3.09765625 C65.38291263 3.07587242 70.69143452 3.04261153 76 3 C72.87268075 5.50202006 71.35705484 6.3522973 67.3125 6.125 C65.87612662 6.0544743 64.4380919 6.00583404 63 6 C62.67 6.33 62.34 6.66 62 7 C55.92408969 8.08498398 50.13212265 7.97720003 44 7.625 C42.85047852 7.56046631 42.85047852 7.56046631 41.67773438 7.49462891 C36.13018209 7.13018209 36.13018209 7.13018209 35 6 C32.66767422 5.65134554 30.35041873 5.35762265 28.0078125 5.09765625 C26.56638239 4.92793691 25.12497689 4.75800846 23.68359375 4.58789062 C21.40381366 4.32385662 19.12379699 4.0623642 16.84326172 3.80493164 C14.64723194 3.55535036 12.45254636 3.29585373 10.2578125 3.03515625 C9.57647247 2.96112076 8.89513245 2.88708527 8.19314575 2.81080627 C4.74439159 2.3956618 2.95413296 1.96942197 0 0 Z " fill="#B9E05A" transform="translate(588,462)"/>
<path d="M0 0 C0.33 0 0.66 0 1 0 C2.33715666 10.42982196 3.47209234 20.57087006 2.25 31.0625 C2.16379395 31.80483887 2.07758789 32.54717773 1.98876953 33.31201172 C1.50331039 36.87785437 0.89338569 39.91121403 -1 43 C-2.03734762 38.73316417 -2.16107973 34.58139438 -2.16796875 30.21484375 C-2.17129715 29.47673965 -2.17462555 28.73863556 -2.17805481 27.97816467 C-2.18309875 26.42417013 -2.18546392 24.87016483 -2.18530273 23.31616211 C-2.18749611 20.94171402 -2.20569697 18.56772583 -2.22460938 16.19335938 C-2.22754248 14.67968908 -2.22952783 13.16601659 -2.23046875 11.65234375 C-2.23765427 10.94496567 -2.24483978 10.23758759 -2.25224304 9.5087738 C-2.23523692 5.83703776 -2.02141618 3.12100248 0 0 Z " fill="#1B481E" transform="translate(771,304)"/>
<path d="M0 0 C-2 2 -2 2 -11 4 C-1.43 4 8.14 4 18 4 C18 4.33 18 4.66 18 5 C1.31398775 7.1986275 -15.20708637 7.21874537 -32 7 C-31.67 6.34 -31.34 5.68 -31 5 C-28.57910156 4.31396484 -28.57910156 4.31396484 -25.390625 3.7109375 C-24.24335938 3.49179687 -23.09609375 3.27265625 -21.9140625 3.046875 C-20.70492188 2.82515625 -19.49578125 2.6034375 -18.25 2.375 C-17.05632813 2.14554688 -15.86265625 1.91609375 -14.6328125 1.6796875 C-4.9054524 -0.14827279 -4.9054524 -0.14827279 0 0 Z " fill="#65AE37" transform="translate(530,754)"/>
<path d="M0 0 C0.33 0 0.66 0 1 0 C1.8354503 7.92414595 2.01593584 15.55149803 1.5625 23.5 C0.88279 37.33566188 0.89888951 51.15097395 1 65 C0.67 65 0.34 65 0 65 C-0.34201731 60.62563493 -0.67195334 56.25043317 -1 51.875 C-1.09539062 50.65683594 -1.19078125 49.43867187 -1.2890625 48.18359375 C-2.22405974 35.56113095 -2.226602 23.2225341 -1 10.625 C-0.85691406 9.07425781 -0.85691406 9.07425781 -0.7109375 7.4921875 C-0.47964232 4.99419954 -0.24265608 2.49690529 0 0 Z " fill="#264B26" transform="translate(216,486)"/>
<path d="M0 0 C0.66 0.33 1.32 0.66 2 1 C-11.13235294 18.04411765 -11.13235294 18.04411765 -17 20 C-18.33393415 21.60049987 -18.33393415 21.60049987 -19.5 23.5 C-21.66666667 26.88888889 -21.66666667 26.88888889 -25 28 C-23.4785338 23.21053244 -20.79972181 19.97922249 -17.5625 16.25 C-17.03624023 15.63817871 -16.50998047 15.02635742 -15.96777344 14.39599609 C-11.14139573 8.91697686 -5.86348925 4.36299003 0 0 Z " fill="#15441B" transform="translate(291,246)"/>
<path d="M0 0 C16.70799614 -0.79421813 33.60502221 1.94391861 50 5 C46.93882432 7.62386487 46.26826873 8 42 8 C41.505 7.01 41.505 7.01 41 6 C37.72444392 5.52998967 37.72444392 5.52998967 33.9375 5.375 C32.00197266 5.26285156 32.00197266 5.26285156 30.02734375 5.1484375 C28.52880859 5.07496094 28.52880859 5.07496094 27 5 C27 4.34 27 3.68 27 3 C25.02 3 23.04 3 21 3 C20.67 3.66 20.34 4.32 20 5 C19.67 4.67 19.34 4.34 19 4 C17.17093765 3.79162581 15.33611866 3.63250341 13.5 3.5 C8.11111111 3.11111111 8.11111111 3.11111111 7 2 C4.67182036 1.63239269 2.3381615 1.29758419 0 1 C0 0.67 0 0.34 0 0 Z " fill="#BFE35D" transform="translate(537,456)"/>
<path d="M0 0 C0.99 0 1.98 0 3 0 C3.41572266 1.68029297 3.41572266 1.68029297 3.83984375 3.39453125 C4.20566667 4.86720302 4.57155553 6.33985842 4.9375 7.8125 C5.11990234 8.55048828 5.30230469 9.28847656 5.49023438 10.04882812 C6.2422615 13.07060984 7.01485573 16.04456718 8 19 C-1.59970013 17.7696843 -10.71605508 15.64521806 -20 13 C-20 12.67 -20 12.34 -20 12 C-18.783125 12.144375 -17.56625 12.28875 -16.3125 12.4375 C-10.2212315 13.11863226 -4.11235086 13.55598069 2 14 C1.855625 13.40832031 1.71125 12.81664062 1.5625 12.20703125 C0.59177306 8.07470059 -0.27593702 4.2770238 0 0 Z " fill="#B0DC57" transform="translate(447,735)"/>
<path d="M0 0 C-3.1872253 2.12481687 -5.27632149 2.63909317 -8.99609375 3.40234375 C-10.19556641 3.65306641 -11.39503906 3.90378906 -12.63085938 4.16210938 C-13.88705078 4.41798828 -15.14324219 4.67386719 -16.4375 4.9375 C-18.89495748 5.44455323 -21.35199396 5.95365135 -23.80859375 6.46484375 C-25.61046143 6.83778564 -25.61046143 6.83778564 -27.44873047 7.21826172 C-31.83912306 8.18471552 -36.16824439 9.33562641 -40.49633789 10.54907227 C-43.0704323 11.01268537 -44.55425606 10.84821625 -47 10 C-32.40318907 5.59225513 -32.40318907 5.59225513 -25 5 C-25 4.34 -25 3.68 -25 3 C-16.54704214 0.92686581 -8.71703754 -0.48032656 0 0 Z " fill="#BFE35D" transform="translate(669,490)"/>
<path d="M0 0 C5.00966838 0.90236263 9.89748931 2.25402959 14.8125 3.5625 C15.69615234 3.79646484 16.57980469 4.03042969 17.49023438 4.27148438 C19.66051561 4.84631562 21.83042042 5.42252721 24 6 C24 6.33 24 6.66 24 7 C20.37 7 16.74 7 13 7 C13 6.34 13 5.68 13 5 C8.85973819 4.4032055 6.35008897 4.06250603 2.83984375 6.5 C0.624844 8.58854489 -1.44840857 10.75084791 -3.5 13 C-4.22703125 13.763125 -4.9540625 14.52625 -5.703125 15.3125 C-7.48820831 17.19153506 -9.25195786 19.08656814 -11 21 C-11.33 20.01 -11.66 19.02 -12 18 C-6.66666667 12.66666667 -1.33333333 7.33333333 4 2 C2.68 1.34 1.36 0.68 0 0 Z " fill="#A7D44F" transform="translate(330,457)"/>
<path d="M0 0 C4.67519225 1.60035427 8.43214993 4.14479996 12.5 6.875 C20.21469284 11.97544581 28.1444874 16.60841168 36.21875 21.11474609 C37.07339844 21.59379395 37.92804688 22.0728418 38.80859375 22.56640625 C39.56970459 22.98865479 40.33081543 23.41090332 41.11499023 23.84594727 C43 25 43 25 45 27 C43.1875 27.6875 43.1875 27.6875 41 28 C39.97702078 27.02351983 38.98095748 26.01868662 38 25 C37.030625 24.690625 36.06125 24.38125 35.0625 24.0625 C32 23 32 23 30.16796875 21.1484375 C27.71732485 18.71987147 25.25574358 17.24836395 22.25 15.5625 C17.96239556 13.12814583 13.75567402 10.63056678 9.62109375 7.9453125 C7.84142246 6.83340943 7.84142246 6.83340943 5 6 C3.15500602 4.12382302 1.6316401 2.07262391 0 0 Z " fill="#569E35" transform="translate(377,718)"/>
<path d="M0 0 C0.33 0 0.66 0 1 0 C2.65 9.24 4.3 18.48 6 28 C5.01 28 4.02 28 3 28 C3 26.68 3 25.36 3 24 C2.01 24 1.02 24 0 24 C-1.86783046 18.51324804 -2.2358396 13.77807024 -2 8 C-1.67 8 -1.34 8 -1 8 C-0.67 5.36 -0.34 2.72 0 0 Z M0 15 C1 18 1 18 1 18 Z M1 19 C2 23 2 23 2 23 Z " fill="#0B230D" transform="translate(218,549)"/>
<path d="M0 0 C0.33 0 0.66 0 1 0 C3.03965873 6.72361812 3.27312917 12.87535023 3.1875 19.875 C3.18105469 20.96675537 3.17460938 22.05851074 3.16796875 23.18334961 C3.08092595 32.47584837 2.6628379 41.73210583 2 51 C1.67 51 1.34 51 1 51 C0.67 34.17 0.34 17.34 0 0 Z " fill="#0F2812" transform="translate(806,487)"/>
<path d="M0 0 C-2.21810236 2.4611881 -4.27610094 3.77528943 -7.2890625 5.12890625 C-8.14072998 5.51973389 -8.99239746 5.91056152 -9.86987305 6.31323242 C-10.77906494 6.72549072 -11.68825684 7.13774902 -12.625 7.5625 C-20.67032838 11.27760401 -28.33474019 15.33248177 -35.84423828 20.03930664 C-37.53054188 21.08040678 -39.26158247 22.04846765 -41 23 C-41.66 22.67 -42.32 22.34 -43 22 C-35.44773702 17.14594229 -27.75017168 12.69419679 -19.8125 8.5 C-18.97485107 8.05479004 -18.13720215 7.60958008 -17.27416992 7.15087891 C-16.48888916 6.74015137 -15.7036084 6.32942383 -14.89453125 5.90625 C-14.19175049 5.53822266 -13.48896973 5.17019531 -12.76489258 4.79101562 C-11 4 -11 4 -9 4 C-9 3.34 -9 2.68 -9 2 C-3.375 -1.125 -3.375 -1.125 0 0 Z " fill="#D1EC67" transform="translate(587,513)"/>
<path d="M0 0 C-4.21317411 1.59671127 -8.43064911 3.18124833 -12.65258789 4.75463867 C-14.0884087 5.29167169 -15.522994 5.83202005 -16.95629883 6.37573242 C-19.01588747 7.15636571 -21.07961448 7.92499662 -23.14453125 8.69140625 C-24.10562553 9.06006554 -24.10562553 9.06006554 -25.08613586 9.43617249 C-29.65838488 11.11387171 -29.65838488 11.11387171 -33 10 C-31.68 9.67 -30.36 9.34 -29 9 C-29 8.34 -29 7.68 -29 7 C-27.58603098 6.49242138 -26.16868271 5.99425075 -24.75 5.5 C-23.96109375 5.2215625 -23.1721875 4.943125 -22.359375 4.65625 C-20 4 -20 4 -16 4 C-16 3.34 -16 2.68 -16 2 C-13.89829344 1.46932659 -11.79352402 0.95077143 -9.6875 0.4375 C-7.92986328 0.00244141 -7.92986328 0.00244141 -6.13671875 -0.44140625 C-3 -1 -3 -1 0 0 Z " fill="#BFE25E" transform="translate(621,502)"/>
<path d="M0 0 C0.66 0 1.32 0 2 0 C0.68 5.28 -0.64 10.56 -2 16 C-3.04973814 11.80104745 -2.72795155 9.20594226 -2 5 C-6.95 6.485 -6.95 6.485 -12 8 C-12 8.66 -12 9.32 -12 10 C-15.28696233 10.79953138 -16.71023192 11.09658936 -20 10 C-19.42967041 9.7326001 -18.85934082 9.4652002 -18.27172852 9.18969727 C-15.70093338 7.98285833 -13.13170278 6.7727249 -10.5625 5.5625 C-9.66466797 5.14162109 -8.76683594 4.72074219 -7.84179688 4.28710938 C-6.98779297 3.88427734 -6.13378906 3.48144531 -5.25390625 3.06640625 C-4.46314697 2.69459229 -3.6723877 2.32277832 -2.85766602 1.93969727 C-1.03502006 1.13895211 -1.03502006 1.13895211 0 0 Z " fill="#69B236" transform="translate(751,488)"/>
<path d="M0 0 C1.39035371 4.17106112 -0.09769194 7.18206859 -1.4375 11.1875 C-1.68048828 11.93708984 -1.92347656 12.68667969 -2.17382812 13.45898438 C-2.77465056 15.30857501 -3.38629678 17.15464327 -4 19 C-4.66 18.67 -5.32 18.34 -6 18 C-6.37851209 12.06997733 -5.10575375 7.52760359 -3 2 C-2.01 2 -1.02 2 0 2 C0 1.34 0 0.68 0 0 Z " fill="#1C4520" transform="translate(800,581)"/>
<path d="M0 0 C0.66 0.33 1.32 0.66 2 1 C1.56244385 1.40726318 1.1248877 1.81452637 0.67407227 2.23413086 C-11.3447646 13.42932467 -11.3447646 13.42932467 -23 25 C-23 22 -23 22 -21.57885742 20.23828125 C-20.92763916 19.60277344 -20.2764209 18.96726562 -19.60546875 18.3125 C-18.89712891 17.61382813 -18.18878906 16.91515625 -17.45898438 16.1953125 C-16.70939453 15.47085938 -15.95980469 14.74640625 -15.1875 14 C-14.44951172 13.27554688 -13.71152344 12.55109375 -12.95117188 11.8046875 C-11.57391229 10.45360208 -10.19360117 9.10561551 -8.80932617 7.76171875 C-7.66158948 6.64418158 -6.52370299 5.51636416 -5.3996582 4.375 C-3.72361282 2.72848202 -1.90084835 1.37647639 0 0 Z " fill="#D2EF65" transform="translate(520,552)"/>
<path d="M0 0 C2.24658203 -0.34057617 2.24658203 -0.34057617 5.0078125 -0.29296875 C5.99394531 -0.28330078 6.98007812 -0.27363281 7.99609375 -0.26367188 C9.02863281 -0.23853516 10.06117188 -0.21339844 11.125 -0.1875 C12.68541016 -0.16719727 12.68541016 -0.16719727 14.27734375 -0.14648438 C16.85207627 -0.11105228 19.4257833 -0.06165221 22 0 C22 0.33 22 0.66 22 1 C13.96235969 3.07422976 6.27015524 3.2144997 -2 3 C-1.34 2.01 -0.68 1.02 0 0 Z " fill="#68AE39" transform="translate(628,438)"/>
<path d="M0 0 C0.33 0 0.66 0 1 0 C1.50720912 2.85305129 2.00593634 5.70716814 2.5 8.5625 C2.64308594 9.36236328 2.78617188 10.16222656 2.93359375 10.98632812 C3.74769395 15.73524598 4.15519589 20.18246077 4 25 C0.75211909 21.4844366 0.32869701 18.30124522 -0.25 13.625 C-0.42015625 12.33851563 -0.5903125 11.05203125 -0.765625 9.7265625 C-0.9845789 6.24519555 -0.73562214 3.39437074 0 0 Z " fill="#255027" transform="translate(804,468)"/>
<path d="M0 0 C-5.18489076 2.79819502 -12.07797463 4.89727657 -18 4 C-18.66 3.01 -19.32 2.02 -20 1 C-19.00419922 0.90912109 -19.00419922 0.90912109 -17.98828125 0.81640625 C-12.55425828 0.32046827 -12.55425828 0.32046827 -7.1875 -0.625 C-4.55908739 -1.07558502 -2.5641735 -0.6593589 0 0 Z " fill="#19481D" transform="translate(596,776)"/>
<path d="M0 0 C1 2 1 2 0.22265625 4.3828125 C-0.16019531 5.28773438 -0.54304687 6.19265625 -0.9375 7.125 C-1.31777344 8.03507812 -1.69804688 8.94515625 -2.08984375 9.8828125 C-2.54037109 10.93082031 -2.54037109 10.93082031 -3 12 C-4.32 12 -5.64 12 -7 12 C-6.690625 10.9275 -6.38125 9.855 -6.0625 8.75 C-5.33187904 6.17133778 -4.62517096 3.60487898 -4 1 C-2.68 0.67 -1.36 0.34 0 0 Z " fill="#1C471E" transform="translate(597,277)"/>
<path d="M0 0 C0.66 0.66 1.32 1.32 2 2 C0.25364835 2.53293835 -1.49727652 3.05090663 -3.25 3.5625 C-4.22453125 3.85253906 -5.1990625 4.14257812 -6.203125 4.44140625 C-8.96243932 4.99249836 -10.3912824 4.93789609 -13 4 C-12.34 3.67 -11.68 3.34 -11 3 C-11 2.34 -11 1.68 -11 1 C-3.36565097 -1.49584488 -3.36565097 -1.49584488 0 0 Z " fill="#0C3F14" transform="translate(661,232)"/>
<path d="M0 0 C1.48046875 1.12109375 1.48046875 1.12109375 3 3 C3.36328125 5.84765625 3.36328125 5.84765625 3.3125 9.0625 C3.30863281 10.12597656 3.30476563 11.18945312 3.30078125 12.28515625 C3 15 3 15 1 17 C0.855625 15.9275 0.71125 14.855 0.5625 13.75 C0.16250558 11.08337051 -0.27591924 8.58600271 -1 6 C-1.66 6 -2.32 6 -3 6 C-2 4 -1 2 0 0 Z " fill="#11511A" transform="translate(253,303)"/>
<path d="M0 0 C2.0625 0.4375 2.0625 0.4375 4 1 C2.44298069 5.67105792 -0.08447373 9.08705685 -3 13 C-4.10096216 9.73381227 -3.9223497 7.98446051 -2.625 4.8125 C-2.34914063 4.11769531 -2.07328125 3.42289063 -1.7890625 2.70703125 C-1 1 -1 1 0 0 Z " fill="#1A431D" transform="translate(762,656)"/>
<path d="M0 0 C0.99 0 1.98 0 3 0 C3.06058594 0.90363281 3.12117187 1.80726563 3.18359375 2.73828125 C3.26738281 3.91777344 3.35117188 5.09726562 3.4375 6.3125 C3.55931641 8.07013672 3.55931641 8.07013672 3.68359375 9.86328125 C3.8867371 13.02590958 3.8867371 13.02590958 5 16 C4.01 16 3.02 16 2 16 C0.13216954 10.51324804 -0.2358396 5.77807024 0 0 Z M2 7 C3 10 3 10 3 10 Z " fill="#316330" transform="translate(216,557)"/>
<path d="M0 0 C1.9756562 2.96348429 2.26376859 3.68020373 2.4140625 7.01171875 C2.45273437 7.76904297 2.49140625 8.52636719 2.53125 9.30664062 C2.57765625 10.48516602 2.57765625 10.48516602 2.625 11.6875 C2.66367187 12.48478516 2.70234375 13.28207031 2.7421875 14.10351562 C2.83632494 16.06863475 2.91924632 18.0342854 3 20 C2.67 20 2.34 20 2 20 C1.67 18.35 1.34 16.7 1 15 C0.34 15 -0.32 15 -1 15 C-0.67 10.05 -0.34 5.1 0 0 Z " fill="#74BD3B" transform="translate(779,475)"/>
<path d="M0 0 C-3.16351048 2.10900699 -5.88040844 3.0584157 -9.5 4.1875 C-10.6446875 4.55230469 -11.789375 4.91710937 -12.96875 5.29296875 C-16 6 -16 6 -19 5 C-18.34 5 -17.68 5 -17 5 C-17 4.34 -17 3.68 -17 3 C-11.17745757 1.03181664 -6.16618181 -0.40214229 0 0 Z " fill="#244D25" transform="translate(626,767)"/>
<path d="M0 0 C3.44475962 4.38423952 5.31620235 7.30835767 5 13 C1.97705165 10.36460913 0.20089247 8.73182256 -0.875 4.8125 C-1 2 -1 2 0 0 Z " fill="#19441D" transform="translate(782,406)"/>
<path d="M0 0 C0.99 0.33 1.98 0.66 3 1 C-2.445 7.93 -2.445 7.93 -8 15 C-8.33 14.34 -8.66 13.68 -9 13 C-8.67 12.01 -8.34 11.02 -8 10 C-7.34 9.67 -6.68 9.34 -6 9 C-5.87625 8.360625 -5.7525 7.72125 -5.625 7.0625 C-5.41875 6.381875 -5.2125 5.70125 -5 5 C-3.68352881 4.30062468 -2.34977849 3.63270867 -1 3 C-0.67 2.01 -0.34 1.02 0 0 Z " fill="#C2E55F" transform="translate(493,577)"/>
<path d="M0 0 C0.33 0 0.66 0 1 0 C1 5.94 1 11.88 1 18 C0.34 18 -0.32 18 -1 18 C-1 19.65 -1 21.3 -1 23 C-1.33 23 -1.66 23 -2 23 C-1.48594306 15.31102069 -0.9234499 7.65144206 0 0 Z " fill="#0E2810" transform="translate(806,539)"/>
<path d="M0 0 C-1.70926443 2.08474219 -2.67747354 2.92461819 -5.33984375 3.546875 C-6.62568359 3.64742188 -6.62568359 3.64742188 -7.9375 3.75 C-8.79214844 3.82734375 -9.64679688 3.9046875 -10.52734375 3.984375 C-12.89332353 3.9993259 -14.74833048 3.68960644 -17 3 C-5.47835991 -0.44419134 -5.47835991 -0.44419134 0 0 Z " fill="#7AC43F" transform="translate(468,310)"/>
<path d="M0 0 C0.99 0 1.98 0 3 0 C2.67 5.61 2.34 11.22 2 17 C1.67 17 1.34 17 1 17 C0.855625 16.2575 0.71125 15.515 0.5625 14.75 C0.08847162 12.12921046 0.08847162 12.12921046 -0.625 10.1875 C-1.22226755 6.70343929 -0.52266557 3.48443711 0 0 Z " fill="#23561E" transform="translate(448,679)"/>
<path d="M0 0 C6.40593286 1.10690752 12.71363856 2.33945169 19 4 C19 4.33 19 4.66 19 5 C15.37 5 11.74 5 8 5 C8 4.34 8 3.68 8 3 C7.05125 2.87625 6.1025 2.7525 5.125 2.625 C2 2 2 2 0 0 Z " fill="#C5E85F" transform="translate(335,459)"/>
<path d="M0 0 C1.1171875 1.671875 1.1171875 1.671875 2 4 C1.3203125 6.578125 1.3203125 6.578125 0.125 9.25 C-0.26429688 10.14203125 -0.65359375 11.0340625 -1.0546875 11.953125 C-1.36664063 12.62859375 -1.67859375 13.3040625 -2 14 C-2.66 14 -3.32 14 -4 14 C-3.00956295 9.16371695 -2.04301154 4.52381127 0 0 Z " fill="#1F4520" transform="translate(228,437)"/>
<path d="M0 0 C0.99 0 1.98 0 3 0 C2.01 4.62 1.02 9.24 0 14 C-0.33 14 -0.66 14 -1 14 C-2.12029814 8.51053913 -1.79217969 5.16569441 0 0 Z " fill="#70B53B" transform="translate(250,453)"/>
<path d="M0 0 C1.36421031 2.72842061 0.87807211 4.60953318 0.5625 7.625 C0.40974609 9.12933594 0.40974609 9.12933594 0.25390625 10.6640625 C0.17011719 11.43492187 0.08632813 12.20578125 0 13 C-0.99 13 -1.98 13 -3 13 C-3.31563182 7.73946963 -2.66590937 4.55426184 0 0 Z " fill="#6DB33B" transform="translate(304,426)"/>
<path d="M0 0 C0 3.53951266 -0.71931715 4.36464694 -2.8125 7.125 C-3.59560547 8.18074219 -3.59560547 8.18074219 -4.39453125 9.2578125 C-6 11 -6 11 -9 12 C-7.50948318 7.39294801 -5.21457741 4.53603516 -2 1 C-1.34 0.67 -0.68 0.34 0 0 Z " fill="#183D1B" transform="translate(263,376)"/>
<path d="M0 0 C4.67105792 1.55701931 8.08705685 4.08447373 12 7 C10.02 7.99 10.02 7.99 8 9 C6.66666667 7.66666667 5.33333333 6.33333333 4 5 C3.2575 4.278125 2.515 3.55625 1.75 2.8125 C0 1 0 1 0 0 Z " fill="#1D471F" transform="translate(392,242)"/>
<path d="M0 0 C-2.58403608 2.53835868 -3.76068358 2.99485632 -7.453125 3.07421875 C-8.70609375 2.94660156 -9.9590625 2.81898438 -11.25 2.6875 C-13.14492188 2.50767578 -13.14492188 2.50767578 -15.078125 2.32421875 C-16.04234375 2.21722656 -17.0065625 2.11023438 -18 2 C-18 1.67 -18 1.34 -18 1 C-11.95170514 0.10395632 -6.1105424 -0.11269443 0 0 Z " fill="#C2E65C" transform="translate(664,465)"/>
<path d="M0 0 C0 0.33 0 0.66 0 1 C-1.65 1 -3.3 1 -5 1 C-5 1.66 -5 2.32 -5 3 C-9.61073111 4.29676812 -13.33840089 3.71109139 -18 3 C-18 2.67 -18 2.34 -18 2 C-11.93184478 0.77100654 -6.20104812 -0.27560214 0 0 Z " fill="#C8EB61" transform="translate(433,461)"/>
<path d="M0 0 C2.74792483 3.40219265 6 7.48464588 6 12 C5.01 12.33 4.02 12.66 3 13 C2.30329584 11.21189234 1.61788811 9.41937948 0.9375 7.625 C0.55464844 6.62726563 0.17179687 5.62953125 -0.22265625 4.6015625 C-1 2 -1 2 0 0 Z " fill="#1E471F" transform="translate(430,280)"/>
<path d="M0 0 C1.32 0.33 2.64 0.66 4 1 C0.7 3.64 -2.6 6.28 -6 9 C-6.66 8.67 -7.32 8.34 -8 8 C-6.1875 5.5 -6.1875 5.5 -4 3 C-3.01 3 -2.02 3 -1 3 C-0.67 2.01 -0.34 1.02 0 0 Z " fill="#C2E460" transform="translate(531,542)"/>
<path d="M0 0 C-0.33 0.66 -0.66 1.32 -1 2 C-2.99609375 2.37890625 -2.99609375 2.37890625 -5.4375 2.5625 C-8.84628205 2.8061175 -8.84628205 2.8061175 -12 4 C-12.99 3.34 -13.98 2.68 -15 2 C-13.25364835 1.46706165 -11.50272348 0.94909337 -9.75 0.4375 C-8.77546875 0.14746094 -7.8009375 -0.14257812 -6.796875 -0.44140625 C-4.03756068 -0.99249836 -2.6087176 -0.93789609 0 0 Z " fill="#29572B" transform="translate(461,286)"/>
<path d="M0 0 C2.125 0.9375 2.125 0.9375 4 2 C1.0567344 3.96217707 -1.75978738 5.58240698 -5 7 C-5.99 6.67 -6.98 6.34 -8 6 C-7.34 6 -6.68 6 -6 6 C-6 5.34 -6 4.68 -6 4 C-4.68 3.67 -3.36 3.34 -2 3 C-2 2.34 -2 1.68 -2 1 C-1.34 0.67 -0.68 0.34 0 0 Z " fill="#224E24" transform="translate(646,755)"/>
<path d="M0 0 C0.33 0.66 0.66 1.32 1 2 C0.00390625 4.6015625 0.00390625 4.6015625 -1.4375 7.625 C-1.91058594 8.62789062 -2.38367188 9.63078125 -2.87109375 10.6640625 C-3.24363281 11.43492187 -3.61617187 12.20578125 -4 13 C-4.33 13 -4.66 13 -5 13 C-4.49540386 8.71093278 -3.94350927 4.88701855 -2 1 C-1.34 0.67 -0.68 0.34 0 0 Z " fill="#214622" transform="translate(789,613)"/>
<path d="M0 0 C1.61648438 0.04060547 1.61648438 0.04060547 3.265625 0.08203125 C4.08546875 0.11683594 4.9053125 0.15164063 5.75 0.1875 C2.34648662 2.21969488 -0.5732927 2.55641039 -4.5 2.8125 C-6.11648438 2.92464844 -6.11648438 2.92464844 -7.765625 3.0390625 C-8.58546875 3.08804687 -9.4053125 3.13703125 -10.25 3.1875 C-6.86416198 0.05642164 -4.53890538 -0.14800778 0 0 Z " fill="#102D12" transform="translate(468.25,283.8125)"/>
<path d="M0 0 C3 1 3 1 4.16796875 3.06640625 C4.50441406 3.89011719 4.84085938 4.71382812 5.1875 5.5625 C5.53167969 6.38878906 5.87585938 7.21507812 6.23046875 8.06640625 C6.48441406 8.70449219 6.73835937 9.34257813 7 10 C6.34 10.66 5.68 11.32 5 12 C4.16180842 10.37750059 3.3295884 8.75191503 2.5 7.125 C2.0359375 6.22007812 1.571875 5.31515625 1.09375 4.3828125 C0 2 0 2 0 0 Z " fill="#1D401E" transform="translate(237,620)"/>
<path d="M0 0 C0.33 0 0.66 0 1 0 C1.82810601 6.81508864 2.50413785 12.51870203 0 19 C-0.33 19 -0.66 19 -1 19 C-1.12086218 12.56744599 -0.82351864 6.38226945 0 0 Z " fill="#376236" transform="translate(216,486)"/>
<path d="M0 0 C2.56687367 3.8503105 1.83288724 5.58569763 1 10 C0.01 10 -0.98 10 -2 10 C-2.1953125 3.9453125 -2.1953125 3.9453125 -2 2 C-1.34 1.34 -0.68 0.68 0 0 Z " fill="#5A9F32" transform="translate(779,487)"/>
<path d="M0 0 C0.66 0 1.32 0 2 0 C0.66629231 3.59075147 -0.80987082 6.84621398 -3 10 C-3.99 10.33 -4.98 10.66 -6 11 C-4.54997977 6.89160936 -2.6020866 3.49655387 0 0 Z " fill="#193A1A" transform="translate(251,391)"/>
<path d="M0 0 C1 3 1 3 0.109375 4.7890625 C-0.33921875 5.39492188 -0.7878125 6.00078125 -1.25 6.625 C-1.68828125 7.23601562 -2.1265625 7.84703125 -2.578125 8.4765625 C-4 10 -4 10 -7 11 C-5.5140084 6.40693504 -3.14985318 3.56430755 0 0 Z " fill="#234724" transform="translate(273,263)"/>
<path d="M0 0 C-0.99 0.495 -0.99 0.495 -2 1 C-1.67 1.66 -1.34 2.32 -1 3 C-3.31 3.66 -5.62 4.32 -8 5 C-8.66 4.01 -9.32 3.02 -10 2 C-3.375 -1.125 -3.375 -1.125 0 0 Z " fill="#1F5223" transform="translate(637,761)"/>
<path d="M0 0 C0.94875 0.04125 1.8975 0.0825 2.875 0.125 C2.875 1.115 2.875 2.105 2.875 3.125 C-0.74826739 4.3327558 -1.76646369 3.66811128 -5.125 2.125 C-3.125 0.125 -3.125 0.125 0 0 Z " fill="#8ECD49" transform="translate(425.125,743.875)"/>
<path d="M0 0 C3.35111834 2.23407889 4.81553956 3.26215824 5.8125 7.25 C5.874375 8.1575 5.93625 9.065 6 10 C5.34 9.67 4.68 9.34 4 9 C4 8.34 4 7.68 4 7 C3.34 6.67 2.68 6.34 2 6 C1.01 5.34 0.02 4.68 -1 4 C-0.67 2.68 -0.34 1.36 0 0 Z " fill="#2A552A" transform="translate(243,633)"/>
<path d="M0 0 C-2.35277269 2.72426311 -4.62496331 3.8141763 -8 5 C-8.33 4.01 -8.66 3.02 -9 2 C-3.375 -1.125 -3.375 -1.125 0 0 Z " fill="#B2D858" transform="translate(587,513)"/>
<path d="M0 0 C0.33 0 0.66 0 1 0 C1.08090971 1.62418745 1.13914995 3.24951745 1.1875 4.875 C1.22230469 5.77992188 1.25710937 6.68484375 1.29296875 7.6171875 C1.19628906 8.40351563 1.09960938 9.18984375 1 10 C0.01 10.66 -0.98 11.32 -2 12 C-1.85904936 10.3745692 -1.71207913 8.74965949 -1.5625 7.125 C-1.48128906 6.22007812 -1.40007812 5.31515625 -1.31640625 4.3828125 C-1 2 -1 2 0 0 Z " fill="#81C941" transform="translate(248,462)"/>
<path d="M0 0 C2.97 0.495 2.97 0.495 6 1 C4.35 2.65 2.7 4.3 1 6 C1 5.34 1 4.68 1 4 C0.34 3.67 -0.32 3.34 -1 3 C-0.67 2.01 -0.34 1.02 0 0 Z " fill="#1F4D21" transform="translate(720,704)"/>
<path d="M0 0 C2.84383123 1.2748209 5.13754018 2.45137078 7 5 C6.57421875 7.1015625 6.57421875 7.1015625 6 9 C4.99406757 7.8803014 3.9954151 6.7540588 3 5.625 C2.443125 4.99851562 1.88625 4.37203125 1.3125 3.7265625 C0 2 0 2 0 0 Z " fill="#173A19" transform="translate(415,261)"/>
<path d="M0 0 C0.66 0.33 1.32 0.66 2 1 C-1.75 6.75 -1.75 6.75 -4 9 C-4.99 8.67 -5.98 8.34 -7 8 C-4.69 5.36 -2.38 2.72 0 0 Z " fill="#1E4620" transform="translate(612,256)"/>
<path d="M0 0 C0.66 0.33 1.32 0.66 2 1 C0.35 2.98 -1.3 4.96 -3 7 C-4.32 6.67 -5.64 6.34 -7 6 C-4.69 4.02 -2.38 2.04 0 0 Z " fill="#214A24" transform="translate(291,246)"/>
<path d="M0 0 C-3.79541663 2.21399303 -7.75629421 3.00980198 -12 4 C-12 3.34 -12 2.68 -12 2 C-11.01 2 -10.02 2 -9 2 C-9 1.34 -9 0.68 -9 0 C-5.67465243 -1.10844919 -3.37817425 -0.84454356 0 0 Z " fill="#2D572C" transform="translate(596,776)"/>
<path d="M0 0 C6.64583333 2.29166667 6.64583333 2.29166667 8 5 C4.0507432 4.44894091 0.65079826 3.61064629 -3 2 C-2.01 1.34 -1.02 0.68 0 0 Z " fill="#244D26" transform="translate(398,764)"/>
<path d="M0 0 C1.65 0.33 3.3 0.66 5 1 C4.67 1.99 4.34 2.98 4 4 C2.35 4.33 0.7 4.66 -1 5 C-0.67 3.35 -0.34 1.7 0 0 Z " fill="#6DB13C" transform="translate(329,458)"/>
<path d="M0 0 C-2.39509338 2.89932357 -4.31245243 3.50168276 -8 4 C-8 3.01 -8 2.02 -8 1 C-3.375 -1.125 -3.375 -1.125 0 0 Z " fill="#75BE3E" transform="translate(439,319)"/>
<path d="M0 0 C2.375 1.25 2.375 1.25 3.375 4.25 C-3.375 3.375 -3.375 3.375 -5.625 2.25 C-5.625 1.59 -5.625 0.93 -5.625 0.25 C-2.625 -0.75 -2.625 -0.75 0 0 Z " fill="#224D23" transform="translate(378.625,755.75)"/>
<path d="M0 0 C0 3 0 3 -1.125 4.5625 C-3.57245046 6.43887869 -6.05734424 7.14989945 -9 8 C-6.14723863 5.06799526 -3.34920216 2.35684596 0 0 Z " fill="#06240F" transform="translate(636,675)"/>
<path d="M0 0 C1.09898702 3.29696105 0.87124444 4.40494903 0.0625 7.6875 C-0.22947266 8.89986328 -0.22947266 8.89986328 -0.52734375 10.13671875 C-0.68332031 10.75160156 -0.83929687 11.36648438 -1 12 C-1.33 12 -1.66 12 -2 12 C-2.74926071 8.33694766 -3.2380014 5.57644848 -2 2 C-1.34 2 -0.68 2 0 2 C0 1.34 0 0.68 0 0 Z " fill="#2A512A" transform="translate(803,569)"/>
<path d="M0 0 C2.97 0 5.94 0 9 0 C9 0.66 9 1.32 9 2 C4.545 2.495 4.545 2.495 0 3 C0 2.01 0 1.02 0 0 Z " fill="#66AA39" transform="translate(366,437)"/>
<path d="M0 0 C0.66 0.99 1.32 1.98 2 3 C1.3125 5.625 1.3125 5.625 0 8 C-0.99 8.33 -1.98 8.66 -3 9 C-3.33 7.35 -3.66 5.7 -4 4 C-3.01 4 -2.02 4 -1 4 C-0.67 2.68 -0.34 1.36 0 0 Z " fill="#264E27" transform="translate(261,281)"/>
<path d="M0 0 C-3.06117568 2.62386487 -3.73173127 3 -8 3 C-8.33 2.01 -8.66 1.02 -9 0 C-5.93109813 -1.53445094 -3.29905734 -0.54984289 0 0 Z " fill="#B3DC58" transform="translate(587,461)"/>
<path d="M0 0 C3.91211733 1.15585285 6.8745041 2.35534962 10 5 C5.75776898 5.3636198 3.41831915 4.5393228 0 2 C0 1.34 0 0.68 0 0 Z " fill="#1D401E" transform="translate(382,237)"/>
<path d="M0 0 C-0.66 0 -1.32 0 -2 0 C-2 0.66 -2 1.32 -2 2 C-4.97 2 -7.94 2 -11 2 C-6.98764085 -0.6749061 -4.6342454 -1.48957888 0 0 Z " fill="#2C582D" transform="translate(661,232)"/>
<path d="M0 0 C2.64 0.33 5.28 0.66 8 1 C8 1.33 8 1.66 8 2 C3.59085217 3.10228696 -0.48382401 3.07654536 -5 3 C-5 2.67 -5 2.34 -5 2 C-3.35 2 -1.7 2 0 2 C0 1.34 0 0.68 0 0 Z " fill="#2C5F2E" transform="translate(564,780)"/>
<path d="M0 0 C0.66 0.33 1.32 0.66 2 1 C0.02 3.31 -1.96 5.62 -4 8 C-4.66 7.67 -5.32 7.34 -6 7 C-4.02 4.69 -2.04 2.38 0 0 Z " fill="#63AC35" transform="translate(527,581)"/>
<path d="M0 0 C6.0546875 -0.1953125 6.0546875 -0.1953125 8 0 C8.66 0.66 9.32 1.32 10 2 C7.36 2.33 4.72 2.66 2 3 C1.34 2.01 0.68 1.02 0 0 Z " fill="#66AA39" transform="translate(546,429)"/>
<path d="M0 0 C0.99 0 1.98 0 3 0 C3.59732819 2.76264289 4 5.16032769 4 8 C2 6.25 2 6.25 0 4 C0 2.68 0 1.36 0 0 Z " fill="#234D24" transform="translate(773,391)"/>
<path d="M0 0 C0.268125 0.639375 0.53625 1.27875 0.8125 1.9375 C1.88667752 4.33131686 1.88667752 4.33131686 5 5 C4.34 6.32 3.68 7.64 3 9 C3 8.34 3 7.68 3 7 C2.01 7.33 1.02 7.66 0 8 C0 5.36 0 2.72 0 0 Z " fill="#275928" transform="translate(256,358)"/>
<path d="M0 0 C0.33 0.99 0.66 1.98 1 3 C1.66 3 2.32 3 3 3 C3.625 5.3125 3.625 5.3125 4 8 C3.01 9.485 3.01 9.485 2 11 C0.80712589 7.12315913 0 4.08378077 0 0 Z " fill="#234B23" transform="translate(253,340)"/>
<path d="M0 0 C0.33 0 0.66 0 1 0 C1.33 2.31 1.66 4.62 2 7 C1.34 7 0.68 7 0 7 C-0.33 7.99 -0.66 8.98 -1 10 C-1 8.68 -1 7.36 -1 6 C-1.66 6 -2.32 6 -3 6 C-2 4 -1 2 0 0 Z " fill="#2F5D2F" transform="translate(253,303)"/>
<path d="M0 0 C2.25 0.25 2.25 0.25 4 1 C2.02 2.32 0.04 3.64 -2 5 C-2.66 4.67 -3.32 4.34 -4 4 C-2.25 1.9375 -2.25 1.9375 0 0 Z " fill="#244C24" transform="translate(673,742)"/>
<path d="M0 0 C3.44216672 2.6598561 3.99504674 5.90288286 5 10 C2.9754262 8.06745228 1.57894208 6.36841312 0 4 C0 2.68 0 1.36 0 0 Z " fill="#09230C" transform="translate(234,611)"/>
<path d="M0 0 C0.33 0.66 0.66 1.32 1 2 C1.99 1.67 2.98 1.34 4 1 C3.39816251 3.02045442 2.72693904 5.02111039 2 7 C1.01 7.495 1.01 7.495 0 8 C0 5.36 0 2.72 0 0 Z " fill="#153917" transform="translate(240,405)"/>
<path d="M0 0 C2 2 2 2 2 5 C1.34 5 0.68 5 0 5 C0 3.35 0 1.7 0 0 Z " fill="#295C2A" transform="translate(216,465)"/>
<path d="M0 0 C0.66 0 1.32 0 2 0 C1.67 0.99 1.34 1.98 1 3 C0.01 2.67 -0.98 2.34 -2 2 C-1.34 1.34 -0.68 0.68 0 0 Z " fill="#235525" transform="translate(626,241)"/>
<path d="M0 0 C0.33 0 0.66 0 1 0 C1 2.31 1 4.62 1 7 C0.67 7 0.34 7 0 7 C0 4.69 0 2.38 0 0 Z " fill="#275826" transform="translate(216,472)"/>
<path d="M0 0 C0.66 1.32 1.32 2.64 2 4 C1.01 4.495 1.01 4.495 0 5 C0 3.35 0 1.7 0 0 Z " fill="#265827" transform="translate(232,417)"/>
<path d="M0 0 C0.33 0 0.66 0 1 0 C1 1.98 1 3.96 1 6 C0.67 6 0.34 6 0 6 C0 4.02 0 2.04 0 0 Z " fill="#255826" transform="translate(249,322)"/>
<path d="M0 0 C0.99 0.33 1.98 0.66 3 1 C2.01 1.33 1.02 1.66 0 2 C0 1.34 0 0.68 0 0 Z " fill="#235825" transform="translate(436,288)"/>
<path d="M0 0 C1.65 0 3.3 0 5 0 C5 0.33 5 0.66 5 1 C3.35 1 1.7 1 0 1 C0 0.67 0 0.34 0 0 Z " fill="#245B27" transform="translate(474,280)"/>
<path d="M0 0 C0.99 1.485 0.99 1.485 2 3 C1.01 3.495 1.01 3.495 0 4 C0 2.68 0 1.36 0 0 Z " fill="#235425" transform="translate(600,264)"/>
<path d="M0 0 C0.99 0.33 1.98 0.66 3 1 C2.01 1 1.02 1 0 1 C0 0.67 0 0.34 0 0 Z " fill="#235427" transform="translate(415,774)"/>
<path d="M0 0 C0.66 0.66 1.32 1.32 2 2 C1.01 1.67 0.02 1.34 -1 1 C-0.67 0.67 -0.34 0.34 0 0 Z " fill="#245325" transform="translate(300,709)"/>
<path d="M0 0 C0.66 0.66 1.32 1.32 2 2 C1.01 2.495 1.01 2.495 0 3 C0 2.01 0 1.02 0 0 Z " fill="#235224" transform="translate(288,697)"/>
<path d="M0 0 C1 4 1 4 1 4 Z " fill="#275827" transform="translate(807,472)"/>
<path d="M0 0 C0.99 0.495 0.99 0.495 2 1 C1.67 1.66 1.34 2.32 1 3 C0.67 2.01 0.34 1.02 0 0 Z " fill="#245627" transform="translate(240,402)"/>
<path d="M0 0 C1 4 1 4 1 4 Z " fill="#245727" transform="translate(251,340)"/>
<path d="M0 0 C0.99 0.33 1.98 0.66 3 1 C2.01 1 1.02 1 0 1 C0 0.67 0 0.34 0 0 Z " fill="#245627" transform="translate(608,256)"/>
<path d="M0 0 C0.66 0 1.32 0 2 0 C2 0.66 2 1.32 2 2 C1.34 2 0.68 2 0 2 C0 1.34 0 0.68 0 0 Z " fill="#225525" transform="translate(280,252)"/>
<path d="M0 0 C0.99 0.33 1.98 0.66 3 1 C2.01 1 1.02 1 0 1 C0 0.67 0 0.34 0 0 Z " fill="#255727" transform="translate(290,241)"/>
<path d="M0 0 C3 1 3 1 3 1 Z " fill="#245427" transform="translate(448,782)"/>
<path d="M0 0 C3 1 3 1 3 1 Z " fill="#245527" transform="translate(443,781)"/>
<path d="M0 0 C3 1 3 1 3 1 Z " fill="#225224" transform="translate(384,763)"/>
<path d="M0 0 C0.99 0.495 0.99 0.495 2 1 C1.01 1.495 1.01 1.495 0 2 C0 1.34 0 0.68 0 0 Z " fill="#235125" transform="translate(290,700)"/>
<path d="M0 0 C0.66 0.66 1.32 1.32 2 2 C1.34 2 0.68 2 0 2 C0 1.34 0 0.68 0 0 Z " fill="#235124" transform="translate(252,652)"/>
<path d="M0 0 C0.66 0 1.32 0 2 0 C1.67 0.66 1.34 1.32 1 2 C0.67 1.34 0.34 0.68 0 0 Z " fill="#265627" transform="translate(224,595)"/>
<path d="M0 0 C0.66 0.66 1.32 1.32 2 2 C1.34 2 0.68 2 0 2 C0 1.34 0 0.68 0 0 Z " fill="#285929" transform="translate(806,469)"/>
<path d="" fill="#255625" transform="translate(0,0)"/>
<path d="M0 0 C3 1 3 1 3 1 Z " fill="#245826" transform="translate(240,400)"/>
<path d="" fill="#245828" transform="translate(0,0)"/>
<path d="" fill="#265928" transform="translate(0,0)"/>
<path d="M0 0 C3 1 3 1 3 1 Z " fill="#235A25" transform="translate(469,281)"/>
<path d="M0 0 C0.99 0.495 0.99 0.495 2 1 C1.01 1.495 1.01 1.495 0 2 C0 1.34 0 0.68 0 0 Z " fill="#265927" transform="translate(592,276)"/>
<path d="M0 0 C0.66 0 1.32 0 2 0 C1.67 0.66 1.34 1.32 1 2 C0.67 1.34 0.34 0.68 0 0 Z " fill="#255828" transform="translate(748,256)"/>
<path d="M0 0 C0.99 0.495 0.99 0.495 2 1 C1.01 1.495 1.01 1.495 0 2 C0 1.34 0 0.68 0 0 Z " fill="#235726" transform="translate(285,248)"/>
<path d="M0 0 C0.99 0.495 0.99 0.495 2 1 C1.01 1.495 1.01 1.495 0 2 C0 1.34 0 0.68 0 0 Z " fill="#265728" transform="translate(305,235)"/>
<path d="M0 0 C0.99 0.495 0.99 0.495 2 1 C1.01 1.495 1.01 1.495 0 2 C0 1.34 0 0.68 0 0 Z " fill="#245626" transform="translate(711,232)"/>
<path d="M0 0 C3 1 3 1 3 1 Z " fill="#235525" transform="translate(707,232)"/>
<path d="M0 0 C3 1 3 1 3 1 Z " fill="#265828" transform="translate(647,232)"/>
<path d="M0 0 C3 1 3 1 3 1 Z " fill="#235526" transform="translate(373,232)"/>
<path d="M0 0 C2 1 2 1 2 1 Z " fill="#275728" transform="translate(571,783)"/>
<path d="M0 0 C2 1 2 1 2 1 Z " fill="#245423" transform="translate(567,783)"/>
<path d="M0 0 C2 1 2 1 2 1 Z " fill="#265526" transform="translate(605,775)"/>
<path d="" fill="#225226" transform="translate(0,0)"/>
<path d="M0 0 C2 1 2 1 2 1 Z " fill="#215022" transform="translate(667,749)"/>
<path d="M0 0 C2 1 2 1 2 1 Z " fill="#205124" transform="translate(352,747)"/>
<path d="" fill="#235427" transform="translate(0,0)"/>
<path d="M0 0 C2 1 2 1 2 1 Z " fill="#225224" transform="translate(336,739)"/>
<path d="" fill="#225223" transform="translate(0,0)"/>
<path d="" fill="#245126" transform="translate(0,0)"/>
<path d="M0 0 C2 1 2 1 2 1 Z " fill="#235225" transform="translate(281,692)"/>
<path d="M0 0 C2 1 2 1 2 1 Z " fill="#225224" transform="translate(249,648)"/>
<path d="" fill="#245626" transform="translate(0,0)"/>
<path d="" fill="#275829" transform="translate(0,0)"/>
<path d="" fill="#235525" transform="translate(0,0)"/>
<path d="" fill="#245524" transform="translate(0,0)"/>
<path d="" fill="#255426" transform="translate(0,0)"/>
<path d="M0 0 C2 1 2 1 2 1 Z " fill="#295929" transform="translate(805,571)"/>
<path d="" fill="#285929" transform="translate(0,0)"/>
<path d="" fill="#245825" transform="translate(0,0)"/>
<path d="M0 0 C2 1 2 1 2 1 Z " fill="#265828" transform="translate(224,440)"/>
<path d="M0 0 C2 1 2 1 2 1 Z " fill="#275828" transform="translate(798,439)"/>
<path d="M0 0 C2 1 2 1 2 1 Z " fill="#255625" transform="translate(234,416)"/>
<path d="" fill="#265728" transform="translate(0,0)"/>
<path d="" fill="#245726" transform="translate(0,0)"/>
<path d="" fill="#255527" transform="translate(0,0)"/>
<path d="M0 0 C2 1 2 1 2 1 Z " fill="#265A27" transform="translate(454,284)"/>
<path d="M0 0 C2 1 2 1 2 1 Z " fill="#255B28" transform="translate(566,283)"/>
<path d="" fill="#235926" transform="translate(0,0)"/>
<path d="M0 0 C2 1 2 1 2 1 Z " fill="#265929" transform="translate(561,282)"/>
<path d="" fill="#215123" transform="translate(0,0)"/>
<path d="M0 0 C2 1 2 1 2 1 Z " fill="#245628" transform="translate(268,265)"/>
<path d="" fill="#235525" transform="translate(0,0)"/>
<path d="M0 0 C2 1 2 1 2 1 Z " fill="#245527" transform="translate(397,243)"/>
<path d="" fill="#245727" transform="translate(0,0)"/>
<path d="M0 0 C2 1 2 1 2 1 Z " fill="#235125" transform="translate(392,240)"/>
<path d="M0 0 C2 1 2 1 2 1 Z " fill="#255829" transform="translate(297,240)"/>
<path d="" fill="#235927" transform="translate(0,0)"/>
<path d="M0 0 C2 1 2 1 2 1 Z " fill="#245527" transform="translate(713,234)"/>
<path d="M0 0 C2 1 2 1 2 1 Z " fill="#27592B" transform="translate(308,234)"/>
<path d="" fill="#667659" transform="translate(0,0)"/>
<path d="" fill="#245426" transform="translate(0,0)"/>
<path d="" fill="#235624" transform="translate(0,0)"/>
<path d="" fill="#235224" transform="translate(0,0)"/>
<path d="" fill="#225225" transform="translate(0,0)"/>
<path d="" fill="#245328" transform="translate(0,0)"/>
<path d="" fill="#225425" transform="translate(0,0)"/>
<path d="" fill="#225226" transform="translate(0,0)"/>
<path d="" fill="#245325" transform="translate(0,0)"/>
<path d="" fill="#255525" transform="translate(0,0)"/>
<path d="" fill="#265627" transform="translate(0,0)"/>
<path d="" fill="#245528" transform="translate(0,0)"/>
<path d="" fill="#265425" transform="translate(0,0)"/>
<path d="" fill="#255727" transform="translate(0,0)"/>
<path d="" fill="#265528" transform="translate(0,0)"/>
<path d="" fill="#245428" transform="translate(0,0)"/>
<path d="" fill="#265427" transform="translate(0,0)"/>
<path d="" fill="#265526" transform="translate(0,0)"/>
<path d="" fill="#1F4F23" transform="translate(0,0)"/>
<path d="" fill="#235527" transform="translate(0,0)"/>
<path d="" fill="#255828" transform="translate(0,0)"/>
<path d="" fill="#245327" transform="translate(0,0)"/>
<path d="" fill="#255527" transform="translate(0,0)"/>
<path d="" fill="#285927" transform="translate(0,0)"/>
<path d="" fill="#235328" transform="translate(0,0)"/>
<path d="" fill="#225126" transform="translate(0,0)"/>
<path d="" fill="#255526" transform="translate(0,0)"/>
<path d="" fill="#255526" transform="translate(0,0)"/>
<path d="" fill="#225226" transform="translate(0,0)"/>
<path d="" fill="#205023" transform="translate(0,0)"/>
<path d="" fill="#245626" transform="translate(0,0)"/>
<path d="" fill="#255425" transform="translate(0,0)"/>
<path d="" fill="#205324" transform="translate(0,0)"/>
<path d="" fill="#235224" transform="translate(0,0)"/>
<path d="" fill="#275729" transform="translate(0,0)"/>
<path d="" fill="#225226" transform="translate(0,0)"/>
<path d="" fill="#235326" transform="translate(0,0)"/>
<path d="" fill="#235425" transform="translate(0,0)"/>
<path d="" fill="#215225" transform="translate(0,0)"/>
<path d="" fill="#235125" transform="translate(0,0)"/>
<path d="" fill="#225025" transform="translate(0,0)"/>
<path d="" fill="#194A1F" transform="translate(0,0)"/>
<path d="" fill="#235225" transform="translate(0,0)"/>
<path d="" fill="#245624" transform="translate(0,0)"/>
<path d="" fill="#215126" transform="translate(0,0)"/>
<path d="" fill="#215524" transform="translate(0,0)"/>
<path d="" fill="#245126" transform="translate(0,0)"/>
<path d="" fill="#1F4B21" transform="translate(0,0)"/>
<path d="" fill="#245326" transform="translate(0,0)"/>
<path d="" fill="#245725" transform="translate(0,0)"/>
<path d="" fill="#235123" transform="translate(0,0)"/>
<path d="" fill="#215122" transform="translate(0,0)"/>
<path d="" fill="#204B20" transform="translate(0,0)"/>
<path d="" fill="#245224" transform="translate(0,0)"/>
<path d="" fill="#224F22" transform="translate(0,0)"/>
<path d="" fill="#2D532C" transform="translate(0,0)"/>
<path d="" fill="#245526" transform="translate(0,0)"/>
<path d="" fill="#275428" transform="translate(0,0)"/>
<path d="" fill="#255425" transform="translate(0,0)"/>
<path d="" fill="#225325" transform="translate(0,0)"/>
<path d="" fill="#265328" transform="translate(0,0)"/>
<path d="" fill="#235326" transform="translate(0,0)"/>
<path d="" fill="#245426" transform="translate(0,0)"/>
<path d="" fill="#215222" transform="translate(0,0)"/>
<path d="" fill="#265627" transform="translate(0,0)"/>
<path d="" fill="#255327" transform="translate(0,0)"/>
<path d="" fill="#245226" transform="translate(0,0)"/>
<path d="" fill="#245624" transform="translate(0,0)"/>
<path d="" fill="#265327" transform="translate(0,0)"/>
<path d="" fill="#225024" transform="translate(0,0)"/>
<path d="" fill="#235021" transform="translate(0,0)"/>
<path d="" fill="#275328" transform="translate(0,0)"/>
<path d="" fill="#245327" transform="translate(0,0)"/>
<path d="" fill="#255326" transform="translate(0,0)"/>
<path d="" fill="#255324" transform="translate(0,0)"/>
<path d="" fill="#2C532C" transform="translate(0,0)"/>
<path d="" fill="#245528" transform="translate(0,0)"/>
<path d="" fill="#255529" transform="translate(0,0)"/>
<path d="" fill="#255527" transform="translate(0,0)"/>
<path d="" fill="#275726" transform="translate(0,0)"/>
<path d="" fill="#265426" transform="translate(0,0)"/>
<path d="" fill="#205022" transform="translate(0,0)"/>
<path d="" fill="#214E21" transform="translate(0,0)"/>
<path d="" fill="#275829" transform="translate(0,0)"/>
<path d="" fill="#245022" transform="translate(0,0)"/>
<path d="" fill="#255426" transform="translate(0,0)"/>
<path d="" fill="#245428" transform="translate(0,0)"/>
<path d="" fill="#275427" transform="translate(0,0)"/>
<path d="" fill="#26572A" transform="translate(0,0)"/>
<path d="" fill="#235123" transform="translate(0,0)"/>
<path d="" fill="#285728" transform="translate(0,0)"/>
<path d="" fill="#235525" transform="translate(0,0)"/>
<path d="" fill="#265526" transform="translate(0,0)"/>
<path d="" fill="#255326" transform="translate(0,0)"/>
<path d="" fill="#235525" transform="translate(0,0)"/>
<path d="" fill="#255328" transform="translate(0,0)"/>
<path d="" fill="#285727" transform="translate(0,0)"/>
<path d="" fill="#295829" transform="translate(0,0)"/>
<path d="" fill="#27562A" transform="translate(0,0)"/>
<path d="" fill="#255728" transform="translate(0,0)"/>
<path d="" fill="#265626" transform="translate(0,0)"/>
<path d="" fill="#255628" transform="translate(0,0)"/>
<path d="" fill="#265629" transform="translate(0,0)"/>
<path d="" fill="#255226" transform="translate(0,0)"/>
<path d="" fill="#255425" transform="translate(0,0)"/>
<path d="" fill="#2A592B" transform="translate(0,0)"/>
<path d="" fill="#295929" transform="translate(0,0)"/>
<path d="" fill="#285928" transform="translate(0,0)"/>
<path d="" fill="#295A28" transform="translate(0,0)"/>
<path d="" fill="#275729" transform="translate(0,0)"/>
<path d="" fill="#265929" transform="translate(0,0)"/>
<path d="" fill="#285928" transform="translate(0,0)"/>
<path d="" fill="#255625" transform="translate(0,0)"/>
<path d="" fill="#205023" transform="translate(0,0)"/>
<path d="" fill="#28592A" transform="translate(0,0)"/>
<path d="" fill="#2A5C2B" transform="translate(0,0)"/>
<path d="" fill="#265428" transform="translate(0,0)"/>
<path d="" fill="#2B572B" transform="translate(0,0)"/>
<path d="" fill="#285729" transform="translate(0,0)"/>
<path d="" fill="#275C2A" transform="translate(0,0)"/>
<path d="" fill="#285B29" transform="translate(0,0)"/>
<path d="" fill="#265929" transform="translate(0,0)"/>
<path d="" fill="#26592A" transform="translate(0,0)"/>
<path d="" fill="#275927" transform="translate(0,0)"/>
<path d="" fill="#275728" transform="translate(0,0)"/>
<path d="" fill="#285A28" transform="translate(0,0)"/>
<path d="" fill="#285B2A" transform="translate(0,0)"/>
<path d="" fill="#255526" transform="translate(0,0)"/>
<path d="" fill="#265626" transform="translate(0,0)"/>
<path d="" fill="#285A29" transform="translate(0,0)"/>
<path d="" fill="#265727" transform="translate(0,0)"/>
<path d="" fill="#255627" transform="translate(0,0)"/>
<path d="" fill="#295928" transform="translate(0,0)"/>
<path d="" fill="#275826" transform="translate(0,0)"/>
<path d="" fill="#255B2A" transform="translate(0,0)"/>
<path d="" fill="#235522" transform="translate(0,0)"/>
<path d="" fill="#255726" transform="translate(0,0)"/>
<path d="" fill="#225022" transform="translate(0,0)"/>
<path d="" fill="#255626" transform="translate(0,0)"/>
<path d="" fill="#245625" transform="translate(0,0)"/>
<path d="" fill="#265927" transform="translate(0,0)"/>
<path d="" fill="#225323" transform="translate(0,0)"/>
<path d="" fill="#255626" transform="translate(0,0)"/>
<path d="" fill="#1F5322" transform="translate(0,0)"/>
<path d="" fill="#265828" transform="translate(0,0)"/>
<path d="" fill="#285629" transform="translate(0,0)"/>
<path d="" fill="#215223" transform="translate(0,0)"/>
<path d="" fill="#275728" transform="translate(0,0)"/>
<path d="" fill="#225325" transform="translate(0,0)"/>
<path d="" fill="#275928" transform="translate(0,0)"/>
<path d="" fill="#245727" transform="translate(0,0)"/>
<path d="" fill="#1F5224" transform="translate(0,0)"/>
<path d="" fill="#265827" transform="translate(0,0)"/>
<path d="" fill="#245627" transform="translate(0,0)"/>
<path d="" fill="#245A29" transform="translate(0,0)"/>
<path d="" fill="#245927" transform="translate(0,0)"/>
<path d="" fill="#285828" transform="translate(0,0)"/>
<path d="" fill="#255A26" transform="translate(0,0)"/>
<path d="" fill="#255526" transform="translate(0,0)"/>
<path d="" fill="#245526" transform="translate(0,0)"/>
<path d="" fill="#2B592C" transform="translate(0,0)"/>
<path d="" fill="#255C29" transform="translate(0,0)"/>
<path d="" fill="#285B2A" transform="translate(0,0)"/>
<path d="" fill="#235A26" transform="translate(0,0)"/>
<path d="" fill="#285E2A" transform="translate(0,0)"/>
<path d="" fill="#275E2A" transform="translate(0,0)"/>
<path d="" fill="#265828" transform="translate(0,0)"/>
<path d="" fill="#275927" transform="translate(0,0)"/>
<path d="" fill="#265D27" transform="translate(0,0)"/>
<path d="" fill="#25612A" transform="translate(0,0)"/>
<path d="" fill="#275D28" transform="translate(0,0)"/>
<path d="" fill="#215221" transform="translate(0,0)"/>
<path d="" fill="#235726" transform="translate(0,0)"/>
<path d="" fill="#265929" transform="translate(0,0)"/>
<path d="" fill="#295B2A" transform="translate(0,0)"/>
<path d="" fill="#275928" transform="translate(0,0)"/>
<path d="" fill="#225826" transform="translate(0,0)"/>
<path d="" fill="#225828" transform="translate(0,0)"/>
<path d="" fill="#245827" transform="translate(0,0)"/>
<path d="" fill="#245627" transform="translate(0,0)"/>
<path d="" fill="#26572A" transform="translate(0,0)"/>
<path d="" fill="#225627" transform="translate(0,0)"/>
<path d="" fill="#265826" transform="translate(0,0)"/>
<path d="" fill="#225526" transform="translate(0,0)"/>
<path d="" fill="#255729" transform="translate(0,0)"/>
<path d="" fill="#255225" transform="translate(0,0)"/>
<path d="" fill="#225324" transform="translate(0,0)"/>
<path d="" fill="#235A28" transform="translate(0,0)"/>
<path d="" fill="#265828" transform="translate(0,0)"/>
<path d="" fill="#26582A" transform="translate(0,0)"/>
<path d="" fill="#245726" transform="translate(0,0)"/>
<path d="" fill="#245828" transform="translate(0,0)"/>
<path d="" fill="#225526" transform="translate(0,0)"/>
<path d="" fill="#275727" transform="translate(0,0)"/>
<path d="" fill="#275827" transform="translate(0,0)"/>
<path d="" fill="#255728" transform="translate(0,0)"/>
<path d="" fill="#235523" transform="translate(0,0)"/>
<path d="" fill="#245324" transform="translate(0,0)"/>
<path d="" fill="#275326" transform="translate(0,0)"/>
<path d="" fill="#245527" transform="translate(0,0)"/>
<path d="" fill="#235524" transform="translate(0,0)"/>
<path d="" fill="#29572A" transform="translate(0,0)"/>
<path d="" fill="#245624" transform="translate(0,0)"/>
<path d="" fill="#245627" transform="translate(0,0)"/>
<path d="" fill="#255527" transform="translate(0,0)"/>
<path d="" fill="#255526" transform="translate(0,0)"/>
<path d="" fill="#26572A" transform="translate(0,0)"/>
<path d="" fill="#235423" transform="translate(0,0)"/>
<path d="" fill="#255827" transform="translate(0,0)"/>
<path d="" fill="#215525" transform="translate(0,0)"/>
<path d="" fill="#225723" transform="translate(0,0)"/>
<path d="" fill="#245524" transform="translate(0,0)"/>
<path d="" fill="#265828" transform="translate(0,0)"/>
<path d="" fill="#255729" transform="translate(0,0)"/>
<path d="" fill="#205324" transform="translate(0,0)"/>
<path d="" fill="#265629" transform="translate(0,0)"/>
<path d="" fill="#285729" transform="translate(0,0)"/>
<path d="" fill="#1F5626" transform="translate(0,0)"/>
<path d="" fill="#255A29" transform="translate(0,0)"/>
<path d="" fill="#245929" transform="translate(0,0)"/>
<path d="" fill="#265C26" transform="translate(0,0)"/>
<path d="" fill="#26572A" transform="translate(0,0)"/>
<path d="" fill="#27592A" transform="translate(0,0)"/>
<path d="" fill="#225526" transform="translate(0,0)"/>
<path d="" fill="#265A28" transform="translate(0,0)"/>
<path d="" fill="#24592A" transform="translate(0,0)"/>
<path d="" fill="#255828" transform="translate(0,0)"/>
<path d="" fill="#245825" transform="translate(0,0)"/>
<path d="" fill="#235A25" transform="translate(0,0)"/>
<path d="" fill="#255A28" transform="translate(0,0)"/>
<path d="" fill="#245A26" transform="translate(0,0)"/>
<path d="" fill="#265B29" transform="translate(0,0)"/>
<path d="" fill="#265827" transform="translate(0,0)"/>
<path d="" fill="#275C2A" transform="translate(0,0)"/>
<path d="" fill="#285B29" transform="translate(0,0)"/>
<path d="" fill="#275C28" transform="translate(0,0)"/>
<path d="" fill="#285C2A" transform="translate(0,0)"/>
<path d="" fill="#255726" transform="translate(0,0)"/>
<path d="" fill="#235826" transform="translate(0,0)"/>
<path d="" fill="#245B28" transform="translate(0,0)"/>
<path d="" fill="#25592B" transform="translate(0,0)"/>
</svg>
